{
  "title" : "",
  "description" : "",
  "author" : "",
  "targetLoudness" : -18.0,
  "shouldApplyLoudnessNormalization" : true,
  "videoFormatFrameRate" : 60,
  "audioFormatSampleRate" : 44100,
  "width" : 1920.0,
  "height" : 1080.0,
  "version" : "3.0",
  "editRate" : 60,
  "authoringClientName" :  {
    "name" : "Camtasia",
    "platform" : "Windows",
    "version" : "19.0"
  },
  "sourceBin" : [
    {
      "id" : 1,
      "src" : "E:\\DAM\\DAM2T\\M09_Flutter\\Git_IVehicle\\Sintesis_DAM2T\\ivehicle\\assets\\video sintesis\\logo_Alex.png",
      "rect" : [0, 0, 1280, 853],
      "lastMod" : "20210530T113548",
      "sourceTracks" : [
        {
          "range" : [0, 1],
          "type" : 1,
          "editRate" : 10000000,
          "trackRect" : [0, 0, 1280, 853],
          "sampleRate" : 0,
          "bitDepth" : 32,
          "numChannels" : 0,
          "integratedLUFS" : 100.0,
          "peakLevel" : -1.0,
          "metaData" : ""
        }
      ]
    },
    {
      "id" : 2,
      "src" : "E:\\DAM\\DAM2T\\M09_Flutter\\Git_IVehicle\\Sintesis_DAM2T\\ivehicle\\assets\\video sintesis\\1.PNG",
      "rect" : [0, 0, 369, 616],
      "lastMod" : "20210530T113735",
      "sourceTracks" : [
        {
          "range" : [0, 1],
          "type" : 1,
          "editRate" : 10000000,
          "trackRect" : [0, 0, 369, 616],
          "sampleRate" : 0,
          "bitDepth" : 32,
          "numChannels" : 0,
          "integratedLUFS" : 100.0,
          "peakLevel" : -1.0,
          "metaData" : ""
        }
      ]
    },
    {
      "id" : 3,
      "src" : "E:\\DAM\\DAM2T\\M09_Flutter\\Git_IVehicle\\Sintesis_DAM2T\\ivehicle\\assets\\video sintesis\\stucom.png",
      "rect" : [0, 0, 1644, 438],
      "lastMod" : "20210530T114029",
      "sourceTracks" : [
        {
          "range" : [0, 1],
          "type" : 1,
          "editRate" : 10000000,
          "trackRect" : [0, 0, 1644, 438],
          "sampleRate" : 0,
          "bitDepth" : 32,
          "numChannels" : 0,
          "integratedLUFS" : 100.0,
          "peakLevel" : -1.0,
          "metaData" : ""
        }
      ]
    },
    {
      "id" : 4,
      "src" : "E:\\DAM\\DAM2T\\M09_Flutter\\Git_IVehicle\\Sintesis_DAM2T\\ivehicle\\assets\\video sintesis\\register&login.mp4",
      "rect" : [0, 0, 1920, 1080],
      "lastMod" : "20210530T120903",
      "sourceTracks" : [
        {
          "range" : [0, 389999998],
          "type" : 0,
          "editRate" : 10000000,
          "trackRect" : [0, 0, 1920, 1080],
          "sampleRate" : "5000000/83333",
          "bitDepth" : 24,
          "numChannels" : 0,
          "integratedLUFS" : 100.0,
          "peakLevel" : -1.0,
          "metaData" : ""
        },
        {
          "range" : [0, 389999998],
          "type" : 2,
          "editRate" : 10000000,
          "trackRect" : [0, 0, 0, 0],
          "sampleRate" : 48000,
          "bitDepth" : 16,
          "numChannels" : 2,
          "integratedLUFS" : -59.69085251972,
          "peakLevel" : 0.0182907767593861,
          "metaData" : ""
        }
      ]
    },
    {
      "id" : 5,
      "src" : "E:\\DAM\\DAM2T\\M09_Flutter\\Git_IVehicle\\Sintesis_DAM2T\\ivehicle\\assets\\video sintesis\\comprobacion_usuario.mp4",
      "rect" : [0, 0, 1920, 1080],
      "lastMod" : "20210530T121921",
      "sourceTracks" : [
        {
          "range" : [0, 221339997],
          "type" : 0,
          "editRate" : 10000000,
          "trackRect" : [0, 0, 1920, 1080],
          "sampleRate" : "10000000/166671",
          "bitDepth" : 24,
          "numChannels" : 0,
          "integratedLUFS" : 100.0,
          "peakLevel" : -1.0,
          "metaData" : ""
        },
        {
          "range" : [0, 221339997],
          "type" : 2,
          "editRate" : 10000000,
          "trackRect" : [0, 0, 0, 0],
          "sampleRate" : 48000,
          "bitDepth" : 16,
          "numChannels" : 2,
          "integratedLUFS" : 0.0,
          "peakLevel" : 0.0,
          "metaData" : ""
        }
      ]
    },
    {
      "id" : 6,
      "src" : "E:\\DAM\\DAM2T\\M09_Flutter\\Git_IVehicle\\Sintesis_DAM2T\\ivehicle\\assets\\video sintesis\\publicar_foto.mp4",
      "rect" : [0, 0, 1920, 1080],
      "lastMod" : "20210530T124220",
      "sourceTracks" : [
        {
          "range" : [0, 274839998],
          "type" : 0,
          "editRate" : 10000000,
          "trackRect" : [0, 0, 1920, 1080],
          "sampleRate" : "1000000/16667",
          "bitDepth" : 24,
          "numChannels" : 0,
          "integratedLUFS" : 100.0,
          "peakLevel" : -1.0,
          "metaData" : ""
        },
        {
          "range" : [0, 274839998],
          "type" : 2,
          "editRate" : 10000000,
          "trackRect" : [0, 0, 0, 0],
          "sampleRate" : 48000,
          "bitDepth" : 16,
          "numChannels" : 2,
          "integratedLUFS" : -60.0997381645931,
          "peakLevel" : 0.0183803513646126,
          "metaData" : ""
        }
      ]
    },
    {
      "id" : 7,
      "src" : "E:\\DAM\\DAM2T\\M09_Flutter\\Git_IVehicle\\Sintesis_DAM2T\\ivehicle\\assets\\video sintesis\\api_gallery.mp4",
      "rect" : [0, 0, 1920, 1080],
      "lastMod" : "20210530T142836",
      "sourceTracks" : [
        {
          "range" : [0, 336669998],
          "type" : 0,
          "editRate" : 10000000,
          "trackRect" : [0, 0, 1920, 1080],
          "sampleRate" : "2500000/41667",
          "bitDepth" : 24,
          "numChannels" : 0,
          "integratedLUFS" : 100.0,
          "peakLevel" : -1.0,
          "metaData" : ""
        },
        {
          "range" : [0, 336669998],
          "type" : 2,
          "editRate" : 10000000,
          "trackRect" : [0, 0, 0, 0],
          "sampleRate" : 48000,
          "bitDepth" : 16,
          "numChannels" : 2,
          "integratedLUFS" : -59.6759622397486,
          "peakLevel" : 0.0183767154812813,
          "metaData" : ""
        }
      ]
    },
    {
      "id" : 8,
      "src" : "E:\\DAM\\DAM2T\\M09_Flutter\\Git_IVehicle\\Sintesis_DAM2T\\ivehicle\\assets\\video sintesis\\search_gallery.mp4",
      "rect" : [0, 0, 1920, 1080],
      "lastMod" : "20210530T143804",
      "sourceTracks" : [
        {
          "range" : [0, 485669997],
          "type" : 0,
          "editRate" : 10000000,
          "trackRect" : [0, 0, 1920, 1080],
          "sampleRate" : "10000000/166667",
          "bitDepth" : 24,
          "numChannels" : 0,
          "integratedLUFS" : 100.0,
          "peakLevel" : -1.0,
          "metaData" : ""
        },
        {
          "range" : [0, 485669997],
          "type" : 2,
          "editRate" : 10000000,
          "trackRect" : [0, 0, 0, 0],
          "sampleRate" : 48000,
          "bitDepth" : 16,
          "numChannels" : 2,
          "integratedLUFS" : -59.6962695066269,
          "peakLevel" : 0.0182311777025461,
          "metaData" : ""
        }
      ]
    },
    {
      "id" : 9,
      "src" : "E:\\DAM\\DAM2T\\M09_Flutter\\Git_IVehicle\\Sintesis_DAM2T\\ivehicle\\assets\\video sintesis\\pixabay.png",
      "rect" : [0, 0, 2560, 496],
      "lastMod" : "20210530T144244",
      "sourceTracks" : [
        {
          "range" : [0, 1],
          "type" : 1,
          "editRate" : 10000000,
          "trackRect" : [0, 0, 2560, 496],
          "sampleRate" : 0,
          "bitDepth" : 32,
          "numChannels" : 0,
          "integratedLUFS" : 100.0,
          "peakLevel" : -1.0,
          "metaData" : ""
        }
      ]
    },
    {
      "id" : 10,
      "src" : "E:\\DAM\\DAM2T\\M09_Flutter\\Git_IVehicle\\Sintesis_DAM2T\\ivehicle\\assets\\video sintesis\\drawer + logout.mp4",
      "rect" : [0, 0, 1920, 1080],
      "lastMod" : "20210530T145729",
      "sourceTracks" : [
        {
          "range" : [0, 267499999],
          "type" : 0,
          "editRate" : 10000000,
          "trackRect" : [0, 0, 1920, 1080],
          "sampleRate" : "5000000/83333",
          "bitDepth" : 24,
          "numChannels" : 0,
          "integratedLUFS" : 100.0,
          "peakLevel" : -1.0,
          "metaData" : ""
        },
        {
          "range" : [0, 267499999],
          "type" : 2,
          "editRate" : 10000000,
          "trackRect" : [0, 0, 0, 0],
          "sampleRate" : 48000,
          "bitDepth" : 16,
          "numChannels" : 2,
          "integratedLUFS" : -59.6593063789766,
          "peakLevel" : 0.0183919426053762,
          "metaData" : ""
        }
      ]
    },
    {
      "id" : 11,
      "src" : "E:\\DAM\\DAM2T\\M09_Flutter\\Git_IVehicle\\Sintesis_DAM2T\\ivehicle\\assets\\video sintesis\\events_and_routes.mp4",
      "rect" : [0, 0, 1920, 1080],
      "lastMod" : "20210530T150142",
      "sourceTracks" : [
        {
          "range" : [0, 794499999],
          "type" : 0,
          "editRate" : 10000000,
          "trackRect" : [0, 0, 1920, 1080],
          "sampleRate" : "5000000/83333",
          "bitDepth" : 24,
          "numChannels" : 0,
          "integratedLUFS" : 100.0,
          "peakLevel" : -1.0,
          "metaData" : ""
        },
        {
          "range" : [0, 794499999],
          "type" : 2,
          "editRate" : 10000000,
          "trackRect" : [0, 0, 0, 0],
          "sampleRate" : 48000,
          "bitDepth" : 16,
          "numChannels" : 2,
          "integratedLUFS" : -60.0432297355728,
          "peakLevel" : 0.0183688160032034,
          "metaData" : ""
        }
      ]
    },
    {
      "id" : 12,
      "src" : "E:\\DAM\\DAM2T\\M09_Flutter\\Git_IVehicle\\Sintesis_DAM2T\\ivehicle\\assets\\video sintesis\\compraventa.mp4",
      "rect" : [0, 0, 1920, 1080],
      "lastMod" : "20210530T151241",
      "sourceTracks" : [
        {
          "range" : [0, 629999999],
          "type" : 0,
          "editRate" : 10000000,
          "trackRect" : [0, 0, 1920, 1080],
          "sampleRate" : "5000000/83333",
          "bitDepth" : 24,
          "numChannels" : 0,
          "integratedLUFS" : 100.0,
          "peakLevel" : -1.0,
          "metaData" : ""
        },
        {
          "range" : [0, 629999999],
          "type" : 2,
          "editRate" : 10000000,
          "trackRect" : [0, 0, 0, 0],
          "sampleRate" : 48000,
          "bitDepth" : 16,
          "numChannels" : 2,
          "integratedLUFS" : -59.6958307539338,
          "peakLevel" : 0.0184224676340818,
          "metaData" : ""
        }
      ]
    },
    {
      "id" : 13,
      "src" : "E:\\DAM\\DAM2T\\M09_Flutter\\Git_IVehicle\\Sintesis_DAM2T\\ivehicle\\assets\\video sintesis\\settings_color_provider.mp4",
      "rect" : [0, 0, 1920, 1080],
      "lastMod" : "20210531T173559",
      "sourceTracks" : [
        {
          "range" : [0, 270999999],
          "type" : 0,
          "editRate" : 10000000,
          "trackRect" : [0, 0, 1920, 1080],
          "sampleRate" : "5000000/83333",
          "bitDepth" : 24,
          "numChannels" : 0,
          "integratedLUFS" : 100.0,
          "peakLevel" : -1.0,
          "metaData" : ""
        },
        {
          "range" : [0, 270999999],
          "type" : 2,
          "editRate" : 10000000,
          "trackRect" : [0, 0, 0, 0],
          "sampleRate" : 48000,
          "bitDepth" : 16,
          "numChannels" : 2,
          "integratedLUFS" : -53.4753275458305,
          "peakLevel" : 0.0301389619708061,
          "metaData" : ""
        }
      ]
    },
    {
      "id" : 14,
      "src" : "E:\\DAM\\DAM2T\\M09_Flutter\\Git_IVehicle\\Sintesis_DAM2T\\ivehicle\\assets\\video sintesis\\term_conditions.mp4",
      "rect" : [0, 0, 1920, 1080],
      "lastMod" : "20210531T173559",
      "sourceTracks" : [
        {
          "range" : [0, 199339998],
          "type" : 0,
          "editRate" : 10000000,
          "trackRect" : [0, 0, 1920, 1080],
          "sampleRate" : "625000/10417",
          "bitDepth" : 24,
          "numChannels" : 0,
          "integratedLUFS" : 100.0,
          "peakLevel" : -1.0,
          "metaData" : ""
        },
        {
          "range" : [0, 199339998],
          "type" : 2,
          "editRate" : 10000000,
          "trackRect" : [0, 0, 0, 0],
          "sampleRate" : 48000,
          "bitDepth" : 16,
          "numChannels" : 2,
          "integratedLUFS" : -53.1732031940318,
          "peakLevel" : 0.0301772188395262,
          "metaData" : ""
        }
      ]
    },
    {
      "id" : 15,
      "src" : "E:\\DAM\\DAM2T\\M09_Flutter\\Git_IVehicle\\Sintesis_DAM2T\\ivehicle\\assets\\video sintesis\\help&contact.mp4",
      "rect" : [0, 0, 1920, 1080],
      "lastMod" : "20210531T173559",
      "sourceTracks" : [
        {
          "range" : [0, 106169999],
          "type" : 0,
          "editRate" : 10000000,
          "trackRect" : [0, 0, 1920, 1080],
          "sampleRate" : "10000000/166671",
          "bitDepth" : 24,
          "numChannels" : 0,
          "integratedLUFS" : 100.0,
          "peakLevel" : -1.0,
          "metaData" : ""
        },
        {
          "range" : [0, 106169999],
          "type" : 2,
          "editRate" : 10000000,
          "trackRect" : [0, 0, 0, 0],
          "sampleRate" : 48000,
          "bitDepth" : 16,
          "numChannels" : 2,
          "integratedLUFS" : -54.0991197454617,
          "peakLevel" : 0.0301087312400341,
          "metaData" : ""
        }
      ]
    }
  ],
  "timeline" : {
    "id" : 16,
    "sceneTrack" : {
      "scenes" : [
        {
          "duration" : 199.883333333333,
          "title" : "",
          "type" : "",
          "csml" : {
            "tracks" : [
              {
                "trackIndex" : 0,
                "medias" : [
                  {
                    "id" : 17,
                    "_type" : "IMFile",
                    "src" : 1,
                    "trackNumber" : 0,
                    "trimStartSum" : 0,
                    "attributes" : {
                      "ident" : "logo_Alex"
                    },
                    "parameters" : {
                      "translation0" : 313.795920857818,
                      "translation1" : 3.14637205178769e-12,
                      "scale0" : 0.709821428570638,
                      "scale1" : 0.709821428570637
                    },
                    "effects" : [

                    ],
                    "start" : 0,
                    "duration" : 300,
                    "mediaStart" : 0,
                    "mediaDuration" : 1,
                    "scalar" : 1,
                    "metadata" : {
                      "clipSpeedAttribute" : false,
                      "default-scale0" : 1.0,
                      "default-scale1" : 1.0,
                      "default-translation0" : 0.0,
                      "default-translation1" : -0.5
                    },
                    "animationTracks" : {

                    }
                  }
                ],
                "transitions" : [
                  {
                    "name" : "Fade",
                    "duration" : 60,
                    "trivial" : false,
                    "reverse" : false,
                    "useAudioPreRoll" : true,
                    "useVisualPreRoll" : true,
                    "rightMedia" : 17
                  },
                  {
                    "name" : "Fade",
                    "duration" : 60,
                    "trivial" : false,
                    "reverse" : false,
                    "useAudioPreRoll" : true,
                    "useVisualPreRoll" : true,
                    "leftMedia" : 17
                  }
                ]
              },
              {
                "trackIndex" : 1,
                "medias" : [
                  {
                    "id" : 18,
                    "_type" : "IMFile",
                    "src" : 2,
                    "trackNumber" : 0,
                    "trimStartSum" : 0,
                    "attributes" : {
                      "ident" : "1"
                    },
                    "parameters" : {
                      "translation0" : -607.642857143371,
                      "translation1" : -1.79002333799971e-06,
                      "scale0" : 1.53094408495074,
                      "scale1" : 1.53094408495074
                    },
                    "effects" : [

                    ],
                    "start" : 0,
                    "duration" : 300,
                    "mediaStart" : 0,
                    "mediaDuration" : 1,
                    "scalar" : 1,
                    "metadata" : {
                      "clipSpeedAttribute" : false,
                      "default-scale0" : 1.0,
                      "default-scale1" : 1.0,
                      "default-translation0" : -0.5,
                      "default-translation1" : 0.0
                    },
                    "animationTracks" : {

                    }
                  },
                  {
                    "id" : 19,
                    "_type" : "UnifiedMedia",
                    "video" : 
                        {
                          "id" : 20,
                          "_type" : "VMFile",
                          "src" : 4,
                          "trackNumber" : 0,
                          "attributes" : {
                            "ident" : "register&login"
                          },
                          "parameters" : {
                            "translation0" : -2.27373675443232e-11,
                            "translation1" : 1.27613475342514e-11,
                            "scale0" : 0.999999999999976,
                            "scale1" : 0.999999999999976
                          },
                          "effects" : [

                          ],
                          "start" : 358,
                          "duration" : 1044,
                          "mediaStart" : 0,
                          "mediaDuration" : 1044,
                          "scalar" : 1,
                          "animationTracks" : {

                          }
                        },
                    "audio" : 
                        {
                          "id" : 21,
                          "_type" : "AMFile",
                          "src" : 4,
                          "trackNumber" : 1,
                          "attributes" : {
                            "ident" : "",
                            "gain" : 1.0,
                            "mixToMono" : false
                          },
                            "channelNumber" : "0,1",
                          "parameters" : {
                            "volume" : {
                              "type" : "double",
                              "keyframes" : [
                                {
                                  "endTime" : -1,
                                  "time" : -1,
                                  "value" : 1.0,
                                  "duration" : 0
                                },
                                {
                                  "endTime" : 0,
                                  "time" : 0,
                                  "value" : 0.0,
                                  "duration" : 0
                                },
                                {
                                  "endTime" : 1044,
                                  "time" : 1044,
                                  "value" : 0.0,
                                  "duration" : 0
                                },
                                {
                                  "endTime" : 1045,
                                  "time" : 1045,
                                  "value" : 1.0,
                                  "duration" : 0
                                }
                              ]
                            }
                          },
                          "effects" : [

                          ],
                          "start" : 358,
                          "duration" : 1044,
                          "mediaStart" : 0,
                          "mediaDuration" : 1044,
                          "scalar" : 1,
                          "animationTracks" : {

                          }
                        }
,
                    "start" : 358,
                    "duration" : 1044,
                    "mediaStart" : 0,
                    "mediaDuration" : 2340,
                    "scalar" : 1,
                    "metadata" : {
                      "clipSpeedAttribute" : false,
                      "default-scale0" : 1.0,
                      "default-scale1" : 1.0,
                      "default-translation0" : 0.0,
                      "default-translation1" : 0.0
                    }
                  },
                  {
                    "id" : 22,
                    "_type" : "UnifiedMedia",
                    "video" : 
                        {
                          "id" : 23,
                          "_type" : "VMFile",
                          "src" : 4,
                          "trackNumber" : 0,
                          "attributes" : {
                            "ident" : "register&login"
                          },
                          "parameters" : {
                            "translation0" : -2.27373675443232e-11,
                            "translation1" : 1.27613475342514e-11,
                            "scale0" : 0.999999999999976,
                            "scale1" : 0.999999999999976
                          },
                          "effects" : [

                          ],
                          "start" : 2191,
                          "duration" : 683,
                          "mediaStart" : 1315,
                          "mediaDuration" : 1025,
                          "scalar" : "683/1025",
                          "animationTracks" : {

                          }
                        },
                    "audio" : 
                        {
                          "id" : 24,
                          "_type" : "AMFile",
                          "src" : 4,
                          "trackNumber" : 1,
                          "attributes" : {
                            "ident" : "",
                            "gain" : 1.0,
                            "mixToMono" : false
                          },
                            "channelNumber" : "0,1",
                          "parameters" : {
                            "volume" : {
                              "type" : "double",
                              "keyframes" : [
                                {
                                  "endTime" : 0,
                                  "time" : 0,
                                  "value" : 1.0,
                                  "duration" : 0
                                },
                                {
                                  "endTime" : 1314,
                                  "time" : 1314,
                                  "value" : 1.0,
                                  "duration" : 0
                                },
                                {
                                  "endTime" : 1315,
                                  "time" : 1315,
                                  "value" : 0.0,
                                  "duration" : 0
                                },
                                {
                                  "endTime" : 2340,
                                  "time" : 2340,
                                  "value" : 0.0,
                                  "duration" : 0
                                },
                                {
                                  "endTime" : 2341,
                                  "time" : 2341,
                                  "value" : 1.0,
                                  "duration" : 0
                                }
                              ]
                            }
                          },
                          "effects" : [

                          ],
                          "start" : 2191,
                          "duration" : 683,
                          "mediaStart" : 1315,
                          "mediaDuration" : 1025,
                          "scalar" : "683/1025",
                          "animationTracks" : {

                          }
                        }
,
                    "start" : 2191,
                    "duration" : 683,
                    "mediaStart" : 0,
                    "mediaDuration" : 2340,
                    "scalar" : "683/1025",
                    "metadata" : {
                      "clipSpeedAttribute" : true,
                      "default-scale0" : 1.0,
                      "default-scale1" : 1.0,
                      "default-translation0" : 0.0,
                      "default-translation1" : 0.0
                    }
                  },
                  {
                    "id" : 25,
                    "_type" : "UnifiedMedia",
                    "video" : 
                        {
                          "id" : 26,
                          "_type" : "VMFile",
                          "src" : 6,
                          "trackNumber" : 0,
                          "attributes" : {
                            "ident" : "publicar_foto"
                          },
                          "effects" : [

                          ],
                          "start" : 2894,
                          "duration" : 824,
                          "mediaStart" : 0,
                          "mediaDuration" : 1648,
                          "scalar" : "1/2",
                          "animationTracks" : {

                          }
                        },
                    "audio" : 
                        {
                          "id" : 27,
                          "_type" : "AMFile",
                          "src" : 6,
                          "trackNumber" : 1,
                          "attributes" : {
                            "ident" : "",
                            "gain" : 1.0,
                            "mixToMono" : false
                          },
                            "channelNumber" : "0,1",
                          "parameters" : {
                            "volume" : {
                              "type" : "double",
                              "keyframes" : [
                                {
                                  "endTime" : -1,
                                  "time" : -1,
                                  "value" : 1.0,
                                  "duration" : 0
                                },
                                {
                                  "endTime" : 0,
                                  "time" : 0,
                                  "value" : 0.0,
                                  "duration" : 0
                                },
                                {
                                  "endTime" : 1648,
                                  "time" : 1648,
                                  "value" : 0.0,
                                  "duration" : 0
                                },
                                {
                                  "endTime" : 1649,
                                  "time" : 1649,
                                  "value" : 1.0,
                                  "duration" : 0
                                }
                              ]
                            }
                          },
                          "effects" : [

                          ],
                          "start" : 2894,
                          "duration" : 824,
                          "mediaStart" : 0,
                          "mediaDuration" : 1648,
                          "scalar" : "1/2",
                          "animationTracks" : {

                          }
                        }
,
                    "start" : 2894,
                    "duration" : 824,
                    "mediaStart" : 0,
                    "mediaDuration" : 1648,
                    "scalar" : "1/2",
                    "metadata" : {
                      "clipSpeedAttribute" : true
                    }
                  },
                  {
                    "id" : 28,
                    "_type" : "UnifiedMedia",
                    "video" : 
                        {
                          "id" : 29,
                          "_type" : "VMFile",
                          "src" : 7,
                          "trackNumber" : 0,
                          "attributes" : {
                            "ident" : "api_gallery"
                          },
                          "effects" : [

                          ],
                          "start" : 3750,
                          "duration" : 1010,
                          "mediaStart" : 0,
                          "mediaDuration" : 2020,
                          "scalar" : "1/2",
                          "animationTracks" : {

                          }
                        },
                    "audio" : 
                        {
                          "id" : 30,
                          "_type" : "AMFile",
                          "src" : 7,
                          "trackNumber" : 1,
                          "attributes" : {
                            "ident" : "",
                            "gain" : 1.0,
                            "mixToMono" : false
                          },
                            "channelNumber" : "0,1",
                          "parameters" : {
                            "volume" : {
                              "type" : "double",
                              "keyframes" : [
                                {
                                  "endTime" : -1,
                                  "time" : -1,
                                  "value" : 1.0,
                                  "duration" : 0
                                },
                                {
                                  "endTime" : 0,
                                  "time" : 0,
                                  "value" : 0.0,
                                  "duration" : 0
                                },
                                {
                                  "endTime" : 2020,
                                  "time" : 2020,
                                  "value" : 0.0,
                                  "duration" : 0
                                },
                                {
                                  "endTime" : 2021,
                                  "time" : 2021,
                                  "value" : 1.0,
                                  "duration" : 0
                                }
                              ]
                            }
                          },
                          "effects" : [

                          ],
                          "start" : 3750,
                          "duration" : 1010,
                          "mediaStart" : 0,
                          "mediaDuration" : 2020,
                          "scalar" : "1/2",
                          "animationTracks" : {

                          }
                        }
,
                    "start" : 3750,
                    "duration" : 1010,
                    "mediaStart" : 0,
                    "mediaDuration" : 2020,
                    "scalar" : "1/2",
                    "metadata" : {
                      "clipSpeedAttribute" : true
                    }
                  },
                  {
                    "id" : 31,
                    "_type" : "UnifiedMedia",
                    "video" : 
                        {
                          "id" : 32,
                          "_type" : "VMFile",
                          "src" : 8,
                          "trackNumber" : 0,
                          "attributes" : {
                            "ident" : "search_gallery"
                          },
                          "effects" : [

                          ],
                          "start" : 4808,
                          "duration" : 1166,
                          "mediaStart" : 0,
                          "mediaDuration" : 2914,
                          "scalar" : "583/1457",
                          "animationTracks" : {

                          }
                        },
                    "audio" : 
                        {
                          "id" : 33,
                          "_type" : "AMFile",
                          "src" : 8,
                          "trackNumber" : 1,
                          "attributes" : {
                            "ident" : "",
                            "gain" : 1.0,
                            "mixToMono" : false
                          },
                            "channelNumber" : "0,1",
                          "parameters" : {
                            "volume" : {
                              "type" : "double",
                              "keyframes" : [
                                {
                                  "endTime" : -1,
                                  "time" : -1,
                                  "value" : 1.0,
                                  "duration" : 0
                                },
                                {
                                  "endTime" : 0,
                                  "time" : 0,
                                  "value" : 0.0,
                                  "duration" : 0
                                },
                                {
                                  "endTime" : 2914,
                                  "time" : 2914,
                                  "value" : 0.0,
                                  "duration" : 0
                                },
                                {
                                  "endTime" : 2915,
                                  "time" : 2915,
                                  "value" : 1.0,
                                  "duration" : 0
                                }
                              ]
                            }
                          },
                          "effects" : [

                          ],
                          "start" : 4808,
                          "duration" : 1166,
                          "mediaStart" : 0,
                          "mediaDuration" : 2914,
                          "scalar" : "583/1457",
                          "animationTracks" : {

                          }
                        }
,
                    "start" : 4808,
                    "duration" : 1166,
                    "mediaStart" : 0,
                    "mediaDuration" : 2914,
                    "scalar" : "583/1457",
                    "metadata" : {
                      "clipSpeedAttribute" : true
                    }
                  },
                  {
                    "id" : 34,
                    "_type" : "UnifiedMedia",
                    "video" : 
                        {
                          "id" : 35,
                          "_type" : "VMFile",
                          "src" : 10,
                          "trackNumber" : 0,
                          "attributes" : {
                            "ident" : "drawer + logout"
                          },
                          "effects" : [

                          ],
                          "start" : 6022,
                          "duration" : 803,
                          "mediaStart" : 0,
                          "mediaDuration" : 1605,
                          "scalar" : "803/1605",
                          "animationTracks" : {

                          }
                        },
                    "audio" : 
                        {
                          "id" : 36,
                          "_type" : "AMFile",
                          "src" : 10,
                          "trackNumber" : 1,
                          "attributes" : {
                            "ident" : "",
                            "gain" : 1.0,
                            "mixToMono" : false
                          },
                            "channelNumber" : "0,1",
                          "parameters" : {
                            "volume" : {
                              "type" : "double",
                              "keyframes" : [
                                {
                                  "endTime" : -1,
                                  "time" : -1,
                                  "value" : 1.0,
                                  "duration" : 0
                                },
                                {
                                  "endTime" : 0,
                                  "time" : 0,
                                  "value" : 0.0,
                                  "duration" : 0
                                },
                                {
                                  "endTime" : 1605,
                                  "time" : 1605,
                                  "value" : 0.0,
                                  "duration" : 0
                                },
                                {
                                  "endTime" : 1606,
                                  "time" : 1606,
                                  "value" : 1.0,
                                  "duration" : 0
                                }
                              ]
                            }
                          },
                          "effects" : [

                          ],
                          "start" : 6022,
                          "duration" : 803,
                          "mediaStart" : 0,
                          "mediaDuration" : 1605,
                          "scalar" : "803/1605",
                          "animationTracks" : {

                          }
                        }
,
                    "start" : 6022,
                    "duration" : 803,
                    "mediaStart" : 0,
                    "mediaDuration" : 1605,
                    "scalar" : "803/1605",
                    "metadata" : {
                      "clipSpeedAttribute" : true
                    }
                  },
                  {
                    "id" : 37,
                    "_type" : "UnifiedMedia",
                    "video" : 
                        {
                          "id" : 38,
                          "_type" : "VMFile",
                          "src" : 11,
                          "trackNumber" : 0,
                          "attributes" : {
                            "ident" : "events_and_routes"
                          },
                          "effects" : [

                          ],
                          "start" : 6875,
                          "duration" : 1588,
                          "mediaStart" : 0,
                          "mediaDuration" : 4767,
                          "scalar" : "1588/4767",
                          "animationTracks" : {

                          }
                        },
                    "audio" : 
                        {
                          "id" : 39,
                          "_type" : "AMFile",
                          "src" : 11,
                          "trackNumber" : 1,
                          "attributes" : {
                            "ident" : "",
                            "gain" : 1.0,
                            "mixToMono" : false
                          },
                            "channelNumber" : "0,1",
                          "parameters" : {
                            "volume" : {
                              "type" : "double",
                              "keyframes" : [
                                {
                                  "endTime" : -1,
                                  "time" : -1,
                                  "value" : 1.0,
                                  "duration" : 0
                                },
                                {
                                  "endTime" : 0,
                                  "time" : 0,
                                  "value" : 0.0,
                                  "duration" : 0
                                },
                                {
                                  "endTime" : 4767,
                                  "time" : 4767,
                                  "value" : 0.0,
                                  "duration" : 0
                                },
                                {
                                  "endTime" : 4768,
                                  "time" : 4768,
                                  "value" : 1.0,
                                  "duration" : 0
                                }
                              ]
                            }
                          },
                          "effects" : [

                          ],
                          "start" : 6875,
                          "duration" : 1588,
                          "mediaStart" : 0,
                          "mediaDuration" : 4767,
                          "scalar" : "1588/4767",
                          "animationTracks" : {

                          }
                        }
,
                    "start" : 6875,
                    "duration" : 1588,
                    "mediaStart" : 0,
                    "mediaDuration" : 4767,
                    "scalar" : "1588/4767",
                    "metadata" : {
                      "clipSpeedAttribute" : true
                    }
                  },
                  {
                    "id" : 40,
                    "_type" : "UnifiedMedia",
                    "video" : 
                        {
                          "id" : 41,
                          "_type" : "VMFile",
                          "src" : 12,
                          "trackNumber" : 0,
                          "attributes" : {
                            "ident" : "compraventa"
                          },
                          "effects" : [

                          ],
                          "start" : 8499,
                          "duration" : 1259,
                          "mediaStart" : 0,
                          "mediaDuration" : 3780,
                          "scalar" : "1259/3780",
                          "animationTracks" : {

                          }
                        },
                    "audio" : 
                        {
                          "id" : 42,
                          "_type" : "AMFile",
                          "src" : 12,
                          "trackNumber" : 1,
                          "attributes" : {
                            "ident" : "",
                            "gain" : 1.0,
                            "mixToMono" : false
                          },
                            "channelNumber" : "0,1",
                          "parameters" : {
                            "volume" : {
                              "type" : "double",
                              "keyframes" : [
                                {
                                  "endTime" : -1,
                                  "time" : -1,
                                  "value" : 1.0,
                                  "duration" : 0
                                },
                                {
                                  "endTime" : 0,
                                  "time" : 0,
                                  "value" : 0.0,
                                  "duration" : 0
                                },
                                {
                                  "endTime" : 3780,
                                  "time" : 3780,
                                  "value" : 0.0,
                                  "duration" : 0
                                },
                                {
                                  "endTime" : 3781,
                                  "time" : 3781,
                                  "value" : 1.0,
                                  "duration" : 0
                                }
                              ]
                            }
                          },
                          "effects" : [

                          ],
                          "start" : 8499,
                          "duration" : 1259,
                          "mediaStart" : 0,
                          "mediaDuration" : 3780,
                          "scalar" : "1259/3780",
                          "animationTracks" : {

                          }
                        }
,
                    "start" : 8499,
                    "duration" : 1259,
                    "mediaStart" : 0,
                    "mediaDuration" : 3780,
                    "scalar" : "1259/3780",
                    "metadata" : {
                      "clipSpeedAttribute" : true
                    }
                  },
                  {
                    "id" : 43,
                    "_type" : "UnifiedMedia",
                    "video" : 
                        {
                          "id" : 44,
                          "_type" : "VMFile",
                          "src" : 13,
                          "trackNumber" : 0,
                          "attributes" : {
                            "ident" : "settings_color_provider"
                          },
                          "effects" : [

                          ],
                          "start" : 9796,
                          "duration" : 813,
                          "mediaStart" : 0,
                          "mediaDuration" : 1626,
                          "scalar" : "1/2",
                          "animationTracks" : {

                          }
                        },
                    "audio" : 
                        {
                          "id" : 45,
                          "_type" : "AMFile",
                          "src" : 13,
                          "trackNumber" : 1,
                          "attributes" : {
                            "ident" : "",
                            "gain" : 1.0,
                            "mixToMono" : false
                          },
                            "channelNumber" : "0,1",
                          "parameters" : {
                            "volume" : {
                              "type" : "double",
                              "keyframes" : [
                                {
                                  "endTime" : -1,
                                  "time" : -1,
                                  "value" : 1.0,
                                  "duration" : 0
                                },
                                {
                                  "endTime" : 0,
                                  "time" : 0,
                                  "value" : 0.0,
                                  "duration" : 0
                                },
                                {
                                  "endTime" : 1626,
                                  "time" : 1626,
                                  "value" : 0.0,
                                  "duration" : 0
                                },
                                {
                                  "endTime" : 1627,
                                  "time" : 1627,
                                  "value" : 1.0,
                                  "duration" : 0
                                }
                              ]
                            }
                          },
                          "effects" : [

                          ],
                          "start" : 9796,
                          "duration" : 813,
                          "mediaStart" : 0,
                          "mediaDuration" : 1626,
                          "scalar" : "1/2",
                          "animationTracks" : {

                          }
                        }
,
                    "start" : 9796,
                    "duration" : 813,
                    "mediaStart" : 0,
                    "mediaDuration" : 1626,
                    "scalar" : "1/2",
                    "metadata" : {
                      "clipSpeedAttribute" : true
                    }
                  },
                  {
                    "id" : 46,
                    "_type" : "UnifiedMedia",
                    "video" : 
                        {
                          "id" : 47,
                          "_type" : "VMFile",
                          "src" : 14,
                          "trackNumber" : 0,
                          "attributes" : {
                            "ident" : "term_conditions"
                          },
                          "effects" : [

                          ],
                          "start" : 10652,
                          "duration" : 598,
                          "mediaStart" : 0,
                          "mediaDuration" : 1195,
                          "scalar" : "598/1195",
                          "animationTracks" : {

                          }
                        },
                    "audio" : 
                        {
                          "id" : 48,
                          "_type" : "AMFile",
                          "src" : 14,
                          "trackNumber" : 1,
                          "attributes" : {
                            "ident" : "",
                            "gain" : 1.0,
                            "mixToMono" : false
                          },
                            "channelNumber" : "0,1",
                          "parameters" : {
                            "volume" : {
                              "type" : "double",
                              "keyframes" : [
                                {
                                  "endTime" : -1,
                                  "time" : -1,
                                  "value" : 1.0,
                                  "duration" : 0
                                },
                                {
                                  "endTime" : 0,
                                  "time" : 0,
                                  "value" : 0.0,
                                  "duration" : 0
                                },
                                {
                                  "endTime" : 1195,
                                  "time" : 1195,
                                  "value" : 0.0,
                                  "duration" : 0
                                },
                                {
                                  "endTime" : 1196,
                                  "time" : 1196,
                                  "value" : 1.0,
                                  "duration" : 0
                                }
                              ]
                            }
                          },
                          "effects" : [

                          ],
                          "start" : 10652,
                          "duration" : 598,
                          "mediaStart" : 0,
                          "mediaDuration" : 1195,
                          "scalar" : "598/1195",
                          "animationTracks" : {

                          }
                        }
,
                    "start" : 10652,
                    "duration" : 598,
                    "mediaStart" : 0,
                    "mediaDuration" : 1195,
                    "scalar" : "598/1195",
                    "metadata" : {
                      "clipSpeedAttribute" : true
                    }
                  },
                  {
                    "id" : 49,
                    "_type" : "UnifiedMedia",
                    "video" : 
                        {
                          "id" : 50,
                          "_type" : "VMFile",
                          "src" : 15,
                          "trackNumber" : 0,
                          "attributes" : {
                            "ident" : "help&contact"
                          },
                          "effects" : [

                          ],
                          "start" : 11290,
                          "duration" : 319,
                          "mediaStart" : 0,
                          "mediaDuration" : 637,
                          "scalar" : "319/637",
                          "animationTracks" : {

                          }
                        },
                    "audio" : 
                        {
                          "id" : 51,
                          "_type" : "AMFile",
                          "src" : 15,
                          "trackNumber" : 1,
                          "attributes" : {
                            "ident" : "",
                            "gain" : 1.0,
                            "mixToMono" : false
                          },
                            "channelNumber" : "0,1",
                          "parameters" : {
                            "volume" : {
                              "type" : "double",
                              "keyframes" : [
                                {
                                  "endTime" : -1,
                                  "time" : -1,
                                  "value" : 1.0,
                                  "duration" : 0
                                },
                                {
                                  "endTime" : 0,
                                  "time" : 0,
                                  "value" : 0.0,
                                  "duration" : 0
                                },
                                {
                                  "endTime" : 637,
                                  "time" : 637,
                                  "value" : 0.0,
                                  "duration" : 0
                                },
                                {
                                  "endTime" : 638,
                                  "time" : 638,
                                  "value" : 1.0,
                                  "duration" : 0
                                }
                              ]
                            }
                          },
                          "effects" : [

                          ],
                          "start" : 11290,
                          "duration" : 319,
                          "mediaStart" : 0,
                          "mediaDuration" : 637,
                          "scalar" : "319/637",
                          "animationTracks" : {

                          }
                        }
,
                    "start" : 11290,
                    "duration" : 319,
                    "mediaStart" : 0,
                    "mediaDuration" : 637,
                    "scalar" : "319/637",
                    "metadata" : {
                      "clipSpeedAttribute" : true
                    }
                  },
                  {
                    "id" : 52,
                    "_type" : "Callout",
                    "def" : {
                      "kind" : "remix",
                      "shape" : "text",
                      "style" : "basic",
                      "height" : 356.122448979446,
                      "line-spacing" : 0.0,
                      "width" : 1046.93877550993,
                      "word-wrap" : 1.0,
                      "horizontal-alignment" : "center",
                      "resize-behavior" : "resizeText",
                      "text" : "¡ESPERAMOS QUE OS HAYA GUSTADO!",
                      "vertical-alignment" : "center",
                      "font" : {
                        "color-blue" : 1.0,
                        "color-green" : 1.0,
                        "color-red" : 1.0,
                        "size" : 96.0,
                        "tracking" : 0.0,
                        "name" : "Montserrat",
                        "weight" : "Regular"
                      },
                      "textAttributes" : {
                        "type" : "textAttributeList",
                        "keyframes" : [
                          {
                            "endTime" : 0,
                            "time" : 0,
                            "value" : [{"name":"fontSize","rangeEnd":32,"rangeStart":0,"value":96,"valueType":"double"},{"name":"fgColor","rangeEnd":32,"rangeStart":0,"value":"(0,0,0,255)","valueType":"color"},{"name":"fontName","rangeEnd":32,"rangeStart":0,"value":"Montserrat","valueType":"string"},{"name":"fontItalic","rangeEnd":32,"rangeStart":0,"value":2,"valueType":"int"},{"name":"fontWeight","rangeEnd":32,"rangeStart":0,"value":400,"valueType":"int"},{"name":"kerning","rangeEnd":32,"rangeStart":0,"value":0,"valueType":"double"},{"name":"underline","rangeEnd":32,"rangeStart":0,"value":0,"valueType":"int"},{"name":"strikethrough","rangeEnd":32,"rangeStart":0,"value":0,"valueType":"int"}],
                            "duration" : 0
                          }
                        ]
                      }
                    },
                    "attributes" : {
                      "autoRotateText" : true
                    },
                    "parameters" : {
                      "translation0" : 0.0306122450446367,
                      "translation1" : 0.438775510346578
                    },
                    "effects" : [

                    ],
                    "start" : 11645,
                    "duration" : 348,
                    "mediaStart" : -476,
                    "mediaDuration" : 348,
                    "scalar" : 1,
                    "metadata" : {
                      "clipSpeedAttribute" : false,
                      "default-HAlign" : "center",
                      "default-LineSpace" : 0.0,
                      "default-VAlign" : "center",
                      "default-text-attributes" : "[{\"name\":\"fontSize\",\"rangeEnd\":24,\"rangeStart\":0,\"value\":96,\"valueType\":\"double\"},{\"name\":\"fontWeight\",\"rangeEnd\":24,\"rangeStart\":0,\"value\":400,\"valueType\":\"int\"},{\"name\":\"fgColor\",\"rangeEnd\":24,\"rangeStart\":0,\"value\":\"(0,0,0,255)\",\"valueType\":\"color\"},{\"name\":\"kerning\",\"rangeEnd\":24,\"rangeStart\":0,\"value\":0,\"valueType\":\"double\"},{\"name\":\"fontItalic\",\"rangeEnd\":24,\"rangeStart\":0,\"value\":2,\"valueType\":\"int\"},{\"name\":\"fontName\",\"rangeEnd\":24,\"rangeStart\":0,\"value\":\"Montserrat\",\"valueType\":\"string\"},{\"name\":\"underline\",\"rangeEnd\":24,\"rangeStart\":0,\"value\":0,\"valueType\":\"int\"},{\"name\":\"strikethrough\",\"rangeEnd\":24,\"rangeStart\":0,\"value\":0,\"valueType\":\"int\"}]",
                      "default-translation0" : 0.0,
                      "default-translation1" : 0.0
                    },
                    "animationTracks" : {

                    }
                  }
                ],
                "transitions" : [
                  {
                    "name" : "Fade",
                    "duration" : 60,
                    "trivial" : false,
                    "reverse" : false,
                    "useAudioPreRoll" : true,
                    "useVisualPreRoll" : true,
                    "rightMedia" : 18
                  },
                  {
                    "name" : "Fade",
                    "duration" : 60,
                    "trivial" : false,
                    "reverse" : false,
                    "useAudioPreRoll" : true,
                    "useVisualPreRoll" : true,
                    "leftMedia" : 18
                  },
                  {
                    "name" : "Fade",
                    "duration" : 60,
                    "trivial" : false,
                    "reverse" : false,
                    "useAudioPreRoll" : true,
                    "useVisualPreRoll" : true,
                    "rightMedia" : 19
                  },
                  {
                    "name" : "Fade",
                    "duration" : 60,
                    "trivial" : false,
                    "reverse" : false,
                    "useAudioPreRoll" : true,
                    "useVisualPreRoll" : true,
                    "leftMedia" : 19
                  },
                  {
                    "name" : "Fade",
                    "duration" : 60,
                    "trivial" : false,
                    "reverse" : false,
                    "useAudioPreRoll" : true,
                    "useVisualPreRoll" : true,
                    "rightMedia" : 22
                  },
                  {
                    "name" : "Fade",
                    "duration" : 60,
                    "trivial" : false,
                    "reverse" : false,
                    "useAudioPreRoll" : true,
                    "useVisualPreRoll" : true,
                    "leftMedia" : 22
                  },
                  {
                    "name" : "Fade",
                    "duration" : 60,
                    "trivial" : false,
                    "reverse" : false,
                    "useAudioPreRoll" : true,
                    "useVisualPreRoll" : true,
                    "rightMedia" : 25
                  },
                  {
                    "name" : "Fade",
                    "duration" : 60,
                    "trivial" : false,
                    "reverse" : false,
                    "useAudioPreRoll" : true,
                    "useVisualPreRoll" : true,
                    "leftMedia" : 25
                  },
                  {
                    "name" : "Fade",
                    "duration" : 60,
                    "trivial" : false,
                    "reverse" : false,
                    "useAudioPreRoll" : true,
                    "useVisualPreRoll" : true,
                    "rightMedia" : 28
                  },
                  {
                    "name" : "Fade",
                    "duration" : 60,
                    "trivial" : false,
                    "reverse" : false,
                    "useAudioPreRoll" : true,
                    "useVisualPreRoll" : true,
                    "leftMedia" : 28
                  },
                  {
                    "name" : "Fade",
                    "duration" : 60,
                    "trivial" : false,
                    "reverse" : false,
                    "useAudioPreRoll" : true,
                    "useVisualPreRoll" : true,
                    "rightMedia" : 31
                  },
                  {
                    "name" : "Fade",
                    "duration" : 60,
                    "trivial" : false,
                    "reverse" : false,
                    "useAudioPreRoll" : true,
                    "useVisualPreRoll" : true,
                    "leftMedia" : 31
                  },
                  {
                    "name" : "Fade",
                    "duration" : 60,
                    "trivial" : false,
                    "reverse" : false,
                    "useAudioPreRoll" : true,
                    "useVisualPreRoll" : true,
                    "rightMedia" : 34
                  },
                  {
                    "name" : "Fade",
                    "duration" : 60,
                    "trivial" : false,
                    "reverse" : false,
                    "useAudioPreRoll" : true,
                    "useVisualPreRoll" : true,
                    "leftMedia" : 34
                  },
                  {
                    "name" : "Fade",
                    "duration" : 60,
                    "trivial" : false,
                    "reverse" : false,
                    "useAudioPreRoll" : true,
                    "useVisualPreRoll" : true,
                    "rightMedia" : 37
                  },
                  {
                    "name" : "Fade",
                    "duration" : 60,
                    "trivial" : false,
                    "reverse" : false,
                    "useAudioPreRoll" : true,
                    "useVisualPreRoll" : true,
                    "leftMedia" : 37
                  },
                  {
                    "name" : "Fade",
                    "duration" : 60,
                    "trivial" : false,
                    "reverse" : false,
                    "useAudioPreRoll" : true,
                    "useVisualPreRoll" : true,
                    "rightMedia" : 40
                  },
                  {
                    "name" : "Fade",
                    "duration" : 60,
                    "trivial" : false,
                    "reverse" : false,
                    "useAudioPreRoll" : true,
                    "useVisualPreRoll" : true,
                    "leftMedia" : 40
                  },
                  {
                    "name" : "Fade",
                    "duration" : 60,
                    "trivial" : false,
                    "reverse" : false,
                    "useAudioPreRoll" : true,
                    "useVisualPreRoll" : true,
                    "rightMedia" : 43
                  },
                  {
                    "name" : "Fade",
                    "duration" : 60,
                    "trivial" : false,
                    "reverse" : false,
                    "useAudioPreRoll" : true,
                    "useVisualPreRoll" : true,
                    "leftMedia" : 43
                  },
                  {
                    "name" : "Fade",
                    "duration" : 60,
                    "trivial" : false,
                    "reverse" : false,
                    "useAudioPreRoll" : true,
                    "useVisualPreRoll" : true,
                    "rightMedia" : 46
                  },
                  {
                    "name" : "Fade",
                    "duration" : 60,
                    "trivial" : false,
                    "reverse" : false,
                    "useAudioPreRoll" : true,
                    "useVisualPreRoll" : true,
                    "leftMedia" : 46
                  },
                  {
                    "name" : "Fade",
                    "duration" : 60,
                    "trivial" : false,
                    "reverse" : false,
                    "useAudioPreRoll" : true,
                    "useVisualPreRoll" : true,
                    "rightMedia" : 49
                  },
                  {
                    "name" : "Fade",
                    "duration" : 60,
                    "trivial" : false,
                    "reverse" : false,
                    "useAudioPreRoll" : true,
                    "useVisualPreRoll" : true,
                    "leftMedia" : 49
                  },
                  {
                    "name" : "Fade",
                    "duration" : 60,
                    "trivial" : false,
                    "reverse" : false,
                    "useAudioPreRoll" : true,
                    "useVisualPreRoll" : true,
                    "rightMedia" : 52
                  },
                  {
                    "name" : "Fade",
                    "duration" : 60,
                    "trivial" : false,
                    "reverse" : false,
                    "useAudioPreRoll" : true,
                    "useVisualPreRoll" : true,
                    "leftMedia" : 52
                  }
                ]
              },
              {
                "trackIndex" : 2,
                "medias" : [
                  {
                    "id" : 53,
                    "_type" : "Callout",
                    "def" : {
                      "kind" : "remix",
                      "shape" : "text",
                      "style" : "basic",
                      "height" : 125.510204081458,
                      "line-spacing" : 0.0,
                      "width" : 1237.14285714179,
                      "word-wrap" : 1.0,
                      "horizontal-alignment" : "center",
                      "resize-behavior" : "resizeText",
                      "text" : "Alex Ortiz, Aleix Poch y Javi Barrientos DAM2T",
                      "vertical-alignment" : "center",
                      "font" : {
                        "color-blue" : 1.0,
                        "color-green" : 1.0,
                        "color-red" : 1.0,
                        "size" : 96.0,
                        "tracking" : 0.0,
                        "name" : "Montserrat",
                        "weight" : "Regular"
                      },
                      "textAttributes" : {
                        "type" : "textAttributeList",
                        "keyframes" : [
                          {
                            "endTime" : 0,
                            "time" : 0,
                            "value" : [{"name":"fontItalic","rangeEnd":46,"rangeStart":0,"value":2,"valueType":"int"},{"name":"underline","rangeEnd":46,"rangeStart":0,"value":0,"valueType":"int"},{"name":"fontSize","rangeEnd":46,"rangeStart":0,"value":96,"valueType":"double"},{"name":"kerning","rangeEnd":46,"rangeStart":0,"value":0,"valueType":"double"},{"name":"fontName","rangeEnd":46,"rangeStart":0,"value":"Montserrat","valueType":"string"},{"name":"strikethrough","rangeEnd":46,"rangeStart":0,"value":0,"valueType":"int"},{"name":"fontWeight","rangeEnd":46,"rangeStart":0,"value":700,"valueType":"int"},{"name":"fgColor","rangeEnd":46,"rangeStart":0,"value":"(0,0,0,255)","valueType":"color"}],
                            "duration" : 0
                          }
                        ]
                      }
                    },
                    "attributes" : {
                      "autoRotateText" : true
                    },
                    "parameters" : {
                      "translation0" : 314.224492286832,
                      "translation1" : -408.530781745261
                    },
                    "effects" : [

                    ],
                    "start" : 0,
                    "duration" : 300,
                    "mediaStart" : 0,
                    "mediaDuration" : 300,
                    "scalar" : 1,
                    "metadata" : {
                      "clipSpeedAttribute" : false,
                      "default-HAlign" : "center",
                      "default-LineSpace" : 0.0,
                      "default-VAlign" : "center",
                      "default-translation0" : 0.0,
                      "default-translation1" : 0.0
                    },
                    "animationTracks" : {

                    }
                  },
                  {
                    "id" : 54,
                    "_type" : "Callout",
                    "def" : {
                      "kind" : "remix",
                      "shape" : "text",
                      "style" : "basic",
                      "height" : 356.122448979446,
                      "line-spacing" : 0.0,
                      "width" : 595.918367346841,
                      "word-wrap" : 1.0,
                      "horizontal-alignment" : "center",
                      "resize-behavior" : "resizeText",
                      "text" : " REGISTRO DE UN NUEVO USUARIO EN LA APP",
                      "vertical-alignment" : "center",
                      "font" : {
                        "color-blue" : 1.0,
                        "color-green" : 1.0,
                        "color-red" : 1.0,
                        "size" : 96.0,
                        "tracking" : 0.0,
                        "name" : "Montserrat",
                        "weight" : "Regular"
                      },
                      "textAttributes" : {
                        "type" : "textAttributeList",
                        "keyframes" : [
                          {
                            "endTime" : 0,
                            "time" : 0,
                            "value" : [{"name":"strikethrough","rangeEnd":39,"rangeStart":0,"value":0,"valueType":"int"},{"name":"underline","rangeEnd":39,"rangeStart":0,"value":0,"valueType":"int"},{"name":"fontWeight","rangeEnd":39,"rangeStart":0,"value":400,"valueType":"int"},{"name":"fgColor","rangeEnd":39,"rangeStart":0,"value":"(0,0,0,255)","valueType":"color"},{"name":"fontSize","rangeEnd":39,"rangeStart":0,"value":96,"valueType":"double"},{"name":"kerning","rangeEnd":39,"rangeStart":0,"value":0,"valueType":"double"},{"name":"fontItalic","rangeEnd":39,"rangeStart":0,"value":2,"valueType":"int"},{"name":"fontName","rangeEnd":39,"rangeStart":0,"value":"Montserrat","valueType":"string"}],
                            "duration" : 0
                          }
                        ]
                      }
                    },
                    "attributes" : {
                      "autoRotateText" : true
                    },
                    "parameters" : {
                      "translation0" : -598.938775510375,
                      "translation1" : 0.438775510410395
                    },
                    "effects" : [

                    ],
                    "start" : 358,
                    "duration" : 1044,
                    "mediaStart" : -476,
                    "mediaDuration" : 1044,
                    "scalar" : 1,
                    "metadata" : {
                      "clipSpeedAttribute" : false,
                      "default-HAlign" : "center",
                      "default-LineSpace" : 0.0,
                      "default-VAlign" : "center",
                      "default-translation0" : 0.0,
                      "default-translation1" : 0.0
                    },
                    "animationTracks" : {

                    }
                  },
                  {
                    "id" : 55,
                    "_type" : "UnifiedMedia",
                    "video" : 
                        {
                          "id" : 56,
                          "_type" : "VMFile",
                          "src" : 5,
                          "trackNumber" : 0,
                          "attributes" : {
                            "ident" : "comprobacion_usuario"
                          },
                          "parameters" : {
                            "translation0" : {
                              "type" : "double",
                              "defaultValue" : 0.0,
                              "keyframes" : [
                                {
                                  "endTime" : "26875/239",
                                  "time" : "5375/239",
                                  "value" : 1352.69193669376,
                                  "duration" : "21500/239"
                                },
                                {
                                  "endTime" : "113950/239",
                                  "time" : "92450/239",
                                  "value" : 894.324939264022,
                                  "duration" : "21500/239"
                                },
                                {
                                  "endTime" : 737,
                                  "time" : 677,
                                  "value" : 829.047110027004,
                                  "duration" : 60
                                },
                                {
                                  "endTime" : 1060,
                                  "time" : 1000,
                                  "value" : -2.27373675443232e-13,
                                  "duration" : 60
                                }
                              ]
                            },
                            "translation1" : {
                              "type" : "double",
                              "defaultValue" : 0.0,
                              "keyframes" : [
                                {
                                  "endTime" : "26875/239",
                                  "time" : "5375/239",
                                  "value" : -504.203780869354,
                                  "duration" : "21500/239"
                                },
                                {
                                  "endTime" : "113950/239",
                                  "time" : "92450/239",
                                  "value" : -449.199732047243,
                                  "duration" : "21500/239"
                                },
                                {
                                  "endTime" : 737,
                                  "time" : 677,
                                  "value" : -408.434424176579,
                                  "duration" : 60
                                },
                                {
                                  "endTime" : 1060,
                                  "time" : 1000,
                                  "value" : 8.5265128291212e-14,
                                  "duration" : 60
                                }
                              ]
                            },
                            "scale0" : {
                              "type" : "double",
                              "defaultValue" : 1.0,
                              "keyframes" : [
                                {
                                  "endTime" : "26875/239",
                                  "time" : "5375/239",
                                  "value" : 2.40905410943723,
                                  "duration" : "21500/239"
                                },
                                {
                                  "endTime" : "113950/239",
                                  "time" : "92450/239",
                                  "value" : 2.40905422644577,
                                  "duration" : "21500/239"
                                },
                                {
                                  "endTime" : 737,
                                  "time" : 677,
                                  "value" : 2.17379431016036,
                                  "duration" : 60
                                },
                                {
                                  "endTime" : 1060,
                                  "time" : 1000,
                                  "value" : 1.0,
                                  "duration" : 60
                                }
                              ]
                            },
                            "scale1" : {
                              "type" : "double",
                              "defaultValue" : 1.0,
                              "keyframes" : [
                                {
                                  "endTime" : "26875/239",
                                  "time" : "5375/239",
                                  "value" : 2.40905446046284,
                                  "duration" : "21500/239"
                                },
                                {
                                  "endTime" : 737,
                                  "time" : 677,
                                  "value" : 2.17379460561627,
                                  "duration" : 60
                                },
                                {
                                  "endTime" : 1060,
                                  "time" : 1000,
                                  "value" : 1.0,
                                  "duration" : 60
                                }
                              ]
                            }
                          },
                          "effects" : [

                          ],
                          "start" : 1423,
                          "duration" : 717,
                          "mediaStart" : 0,
                          "mediaDuration" : 1075,
                          "scalar" : "717/1075",
                          "animationTracks" : {
                            "visual" : [
                              {
                                "endTime" : "26875/239",
                                "duration" : "21500/239",
                                "range" : [ "5375/239", "21500/239"]
                              },
                              {
                                "endTime" : "113950/239",
                                "duration" : "21500/239",
                                "range" : [ "92450/239", "21500/239"]
                              },
                              {
                                "endTime" : 737,
                                "duration" : 60,
                                "range" : [ 677, 60]
                              },
                              {
                                "endTime" : 1060,
                                "duration" : 60,
                                "range" : [ 1000, 60]
                              }
                            ]
                          }
                        },
                    "audio" : 
                        {
                          "id" : 57,
                          "_type" : "AMFile",
                          "src" : 5,
                          "trackNumber" : 1,
                          "attributes" : {
                            "ident" : "",
                            "gain" : 1.0,
                            "mixToMono" : false
                          },
                            "channelNumber" : "0,1",
                          "parameters" : {
                            "volume" : {
                              "type" : "double",
                              "keyframes" : [
                                {
                                  "endTime" : "-1075/717",
                                  "time" : "-1075/717",
                                  "value" : 1.0,
                                  "duration" : 0
                                },
                                {
                                  "endTime" : 0,
                                  "time" : 0,
                                  "value" : 0.0,
                                  "duration" : 0
                                },
                                {
                                  "endTime" : 1075,
                                  "time" : 1075,
                                  "value" : 0.0,
                                  "duration" : 0
                                },
                                {
                                  "endTime" : "771850/717",
                                  "time" : "771850/717",
                                  "value" : 1.0,
                                  "duration" : 0
                                }
                              ]
                            }
                          },
                          "effects" : [

                          ],
                          "start" : 1423,
                          "duration" : 717,
                          "mediaStart" : 0,
                          "mediaDuration" : 1075,
                          "scalar" : "717/1075",
                          "animationTracks" : {

                          }
                        }
,
                    "start" : 1423,
                    "duration" : 717,
                    "mediaStart" : 0,
                    "mediaDuration" : 1327,
                    "scalar" : "717/1075",
                    "metadata" : {
                      "clipSpeedAttribute" : true,
                      "default-scale0" : 1.0,
                      "default-scale1" : 1.0,
                      "default-translation0" : 0.0,
                      "default-translation1" : 0.0
                    }
                  },
                  {
                    "id" : 58,
                    "_type" : "Callout",
                    "def" : {
                      "kind" : "remix",
                      "shape" : "text",
                      "style" : "basic",
                      "height" : 356.122448979446,
                      "line-spacing" : 0.0,
                      "width" : 595.918367346841,
                      "word-wrap" : 1.0,
                      "horizontal-alignment" : "center",
                      "resize-behavior" : "resizeText",
                      "text" : " INICIO DE SESIÓN EN LA APP",
                      "vertical-alignment" : "center",
                      "font" : {
                        "color-blue" : 1.0,
                        "color-green" : 1.0,
                        "color-red" : 1.0,
                        "size" : 96.0,
                        "tracking" : 0.0,
                        "name" : "Montserrat",
                        "weight" : "Regular"
                      },
                      "textAttributes" : {
                        "type" : "textAttributeList",
                        "keyframes" : [
                          {
                            "endTime" : 0,
                            "time" : 0,
                            "value" : [{"name":"kerning","rangeEnd":28,"rangeStart":0,"value":0,"valueType":"double"},{"name":"fontItalic","rangeEnd":28,"rangeStart":0,"value":2,"valueType":"int"},{"name":"underline","rangeEnd":28,"rangeStart":0,"value":0,"valueType":"int"},{"name":"fontName","rangeEnd":28,"rangeStart":0,"value":"Montserrat","valueType":"string"},{"name":"strikethrough","rangeEnd":28,"rangeStart":0,"value":0,"valueType":"int"},{"name":"fontWeight","rangeEnd":28,"rangeStart":0,"value":400,"valueType":"int"},{"name":"fgColor","rangeEnd":28,"rangeStart":0,"value":"(0,0,0,255)","valueType":"color"},{"name":"fontSize","rangeEnd":28,"rangeStart":0,"value":96,"valueType":"double"}],
                            "duration" : 0
                          }
                        ]
                      }
                    },
                    "attributes" : {
                      "autoRotateText" : true
                    },
                    "parameters" : {
                      "translation0" : -611.18367346978,
                      "translation1" : 0.438775510410395
                    },
                    "effects" : [

                    ],
                    "start" : 2191,
                    "duration" : 683,
                    "mediaStart" : -476,
                    "mediaDuration" : 683,
                    "scalar" : 1,
                    "metadata" : {
                      "clipSpeedAttribute" : false,
                      "default-HAlign" : "center",
                      "default-LineSpace" : 0.0,
                      "default-VAlign" : "center",
                      "default-translation0" : 0.0,
                      "default-translation1" : 0.0
                    },
                    "animationTracks" : {

                    }
                  },
                  {
                    "id" : 59,
                    "_type" : "Callout",
                    "def" : {
                      "kind" : "remix",
                      "shape" : "text",
                      "style" : "basic",
                      "height" : 356.122448979446,
                      "line-spacing" : 0.0,
                      "width" : 595.918367346841,
                      "word-wrap" : 1.0,
                      "horizontal-alignment" : "center",
                      "resize-behavior" : "resizeText",
                      "text" : "SUBIR CONTENIDO A LA APP",
                      "vertical-alignment" : "center",
                      "font" : {
                        "color-blue" : 1.0,
                        "color-green" : 1.0,
                        "color-red" : 1.0,
                        "size" : 96.0,
                        "tracking" : 0.0,
                        "name" : "Montserrat",
                        "weight" : "Regular"
                      },
                      "textAttributes" : {
                        "type" : "textAttributeList",
                        "keyframes" : [
                          {
                            "endTime" : 0,
                            "time" : 0,
                            "value" : [{"name":"fontSize","rangeEnd":24,"rangeStart":0,"value":96,"valueType":"double"},{"name":"fontWeight","rangeEnd":24,"rangeStart":0,"value":400,"valueType":"int"},{"name":"fgColor","rangeEnd":24,"rangeStart":0,"value":"(0,0,0,255)","valueType":"color"},{"name":"kerning","rangeEnd":24,"rangeStart":0,"value":0,"valueType":"double"},{"name":"fontItalic","rangeEnd":24,"rangeStart":0,"value":2,"valueType":"int"},{"name":"fontName","rangeEnd":24,"rangeStart":0,"value":"Montserrat","valueType":"string"},{"name":"underline","rangeEnd":24,"rangeStart":0,"value":0,"valueType":"int"},{"name":"strikethrough","rangeEnd":24,"rangeStart":0,"value":0,"valueType":"int"}],
                            "duration" : 0
                          }
                        ]
                      }
                    },
                    "attributes" : {
                      "autoRotateText" : true
                    },
                    "parameters" : {
                      "translation0" : -600.979591836818,
                      "translation1" : 0.438775510410395
                    },
                    "effects" : [

                    ],
                    "start" : 2894,
                    "duration" : 824,
                    "mediaStart" : -476,
                    "mediaDuration" : 824,
                    "scalar" : 1,
                    "metadata" : {
                      "clipSpeedAttribute" : false,
                      "default-HAlign" : "center",
                      "default-LineSpace" : 0.0,
                      "default-VAlign" : "center",
                      "default-translation0" : 0.0,
                      "default-translation1" : 0.0
                    },
                    "animationTracks" : {

                    }
                  },
                  {
                    "id" : 60,
                    "_type" : "Callout",
                    "def" : {
                      "kind" : "remix",
                      "shape" : "text",
                      "style" : "basic",
                      "height" : 356.122448979446,
                      "line-spacing" : 0.0,
                      "width" : 595.918367346841,
                      "word-wrap" : 1.0,
                      "horizontal-alignment" : "center",
                      "resize-behavior" : "resizeText",
                      "text" : "GALERÍA CON CONEXIÓN A UNA API",
                      "vertical-alignment" : "center",
                      "font" : {
                        "color-blue" : 1.0,
                        "color-green" : 1.0,
                        "color-red" : 1.0,
                        "size" : 96.0,
                        "tracking" : 0.0,
                        "name" : "Montserrat",
                        "weight" : "Regular"
                      },
                      "textAttributes" : {
                        "type" : "textAttributeList",
                        "keyframes" : [
                          {
                            "endTime" : 0,
                            "time" : 0,
                            "value" : [{"name":"fgColor","rangeEnd":32,"rangeStart":0,"value":"(0,0,0,255)","valueType":"color"},{"name":"fontItalic","rangeEnd":32,"rangeStart":0,"value":2,"valueType":"int"},{"name":"kerning","rangeEnd":32,"rangeStart":0,"value":0,"valueType":"double"},{"name":"fontName","rangeEnd":32,"rangeStart":0,"value":"Montserrat","valueType":"string"},{"name":"fontWeight","rangeEnd":32,"rangeStart":0,"value":400,"valueType":"int"},{"name":"underline","rangeEnd":32,"rangeStart":0,"value":0,"valueType":"int"},{"name":"strikethrough","rangeEnd":32,"rangeStart":0,"value":0,"valueType":"int"},{"name":"fontSize","rangeEnd":32,"rangeStart":0,"value":96,"valueType":"double"}],
                            "duration" : 0
                          }
                        ]
                      }
                    },
                    "attributes" : {
                      "autoRotateText" : true
                    },
                    "parameters" : {
                      "translation0" : -600.979591836818,
                      "translation1" : 0.438775510410395
                    },
                    "effects" : [

                    ],
                    "start" : 3750,
                    "duration" : 1010,
                    "mediaStart" : -476,
                    "mediaDuration" : 1010,
                    "scalar" : 1,
                    "metadata" : {
                      "clipSpeedAttribute" : false,
                      "default-HAlign" : "center",
                      "default-LineSpace" : 0.0,
                      "default-VAlign" : "center",
                      "default-text-attributes" : "[{\"name\":\"fontSize\",\"rangeEnd\":24,\"rangeStart\":0,\"value\":96,\"valueType\":\"double\"},{\"name\":\"fontWeight\",\"rangeEnd\":24,\"rangeStart\":0,\"value\":400,\"valueType\":\"int\"},{\"name\":\"fgColor\",\"rangeEnd\":24,\"rangeStart\":0,\"value\":\"(0,0,0,255)\",\"valueType\":\"color\"},{\"name\":\"kerning\",\"rangeEnd\":24,\"rangeStart\":0,\"value\":0,\"valueType\":\"double\"},{\"name\":\"fontItalic\",\"rangeEnd\":24,\"rangeStart\":0,\"value\":2,\"valueType\":\"int\"},{\"name\":\"fontName\",\"rangeEnd\":24,\"rangeStart\":0,\"value\":\"Montserrat\",\"valueType\":\"string\"},{\"name\":\"underline\",\"rangeEnd\":24,\"rangeStart\":0,\"value\":0,\"valueType\":\"int\"},{\"name\":\"strikethrough\",\"rangeEnd\":24,\"rangeStart\":0,\"value\":0,\"valueType\":\"int\"}]",
                      "default-translation0" : 0.0,
                      "default-translation1" : 0.0
                    },
                    "animationTracks" : {

                    }
                  },
                  {
                    "id" : 61,
                    "_type" : "Callout",
                    "def" : {
                      "kind" : "remix",
                      "shape" : "text",
                      "style" : "basic",
                      "height" : 356.122448979446,
                      "line-spacing" : 0.0,
                      "width" : 595.918367346841,
                      "word-wrap" : 1.0,
                      "horizontal-alignment" : "center",
                      "resize-behavior" : "resizeText",
                      "text" : "GALERÍA CON FILTRO DE BÚSQUEDA CON LA API DE PIXABAY ",
                      "vertical-alignment" : "center",
                      "font" : {
                        "color-blue" : 1.0,
                        "color-green" : 1.0,
                        "color-red" : 1.0,
                        "size" : 96.0,
                        "tracking" : 0.0,
                        "name" : "Montserrat",
                        "weight" : "Regular"
                      },
                      "textAttributes" : {
                        "type" : "textAttributeList",
                        "keyframes" : [
                          {
                            "endTime" : 0,
                            "time" : 0,
                            "value" : [{"name":"strikethrough","rangeEnd":55,"rangeStart":0,"value":0,"valueType":"int"},{"name":"underline","rangeEnd":55,"rangeStart":0,"value":0,"valueType":"int"},{"name":"fontName","rangeEnd":55,"rangeStart":0,"value":"Montserrat","valueType":"string"},{"name":"fgColor","rangeEnd":55,"rangeStart":0,"value":"(0,0,0,255)","valueType":"color"},{"name":"fontItalic","rangeEnd":55,"rangeStart":0,"value":2,"valueType":"int"},{"name":"fontSize","rangeEnd":55,"rangeStart":0,"value":96,"valueType":"double"},{"name":"fontWeight","rangeEnd":55,"rangeStart":0,"value":400,"valueType":"int"},{"name":"kerning","rangeEnd":55,"rangeStart":0,"value":0,"valueType":"double"}],
                            "duration" : 0
                          }
                        ]
                      }
                    },
                    "attributes" : {
                      "autoRotateText" : true
                    },
                    "parameters" : {
                      "translation0" : -600.979591836818,
                      "translation1" : 0.438775510410395
                    },
                    "effects" : [

                    ],
                    "start" : 4808,
                    "duration" : 1166,
                    "mediaStart" : -476,
                    "mediaDuration" : 1166,
                    "scalar" : 1,
                    "metadata" : {
                      "clipSpeedAttribute" : false,
                      "default-HAlign" : "center",
                      "default-LineSpace" : 0.0,
                      "default-VAlign" : "center",
                      "default-text-attributes" : "[{\"name\":\"fontSize\",\"rangeEnd\":24,\"rangeStart\":0,\"value\":96,\"valueType\":\"double\"},{\"name\":\"fontWeight\",\"rangeEnd\":24,\"rangeStart\":0,\"value\":400,\"valueType\":\"int\"},{\"name\":\"fgColor\",\"rangeEnd\":24,\"rangeStart\":0,\"value\":\"(0,0,0,255)\",\"valueType\":\"color\"},{\"name\":\"kerning\",\"rangeEnd\":24,\"rangeStart\":0,\"value\":0,\"valueType\":\"double\"},{\"name\":\"fontItalic\",\"rangeEnd\":24,\"rangeStart\":0,\"value\":2,\"valueType\":\"int\"},{\"name\":\"fontName\",\"rangeEnd\":24,\"rangeStart\":0,\"value\":\"Montserrat\",\"valueType\":\"string\"},{\"name\":\"underline\",\"rangeEnd\":24,\"rangeStart\":0,\"value\":0,\"valueType\":\"int\"},{\"name\":\"strikethrough\",\"rangeEnd\":24,\"rangeStart\":0,\"value\":0,\"valueType\":\"int\"}]",
                      "default-translation0" : 0.0,
                      "default-translation1" : 0.0
                    },
                    "animationTracks" : {

                    }
                  },
                  {
                    "id" : 62,
                    "_type" : "Callout",
                    "def" : {
                      "kind" : "remix",
                      "shape" : "text",
                      "style" : "basic",
                      "height" : 356.122448979446,
                      "line-spacing" : 0.0,
                      "width" : 595.918367346841,
                      "word-wrap" : 1.0,
                      "horizontal-alignment" : "center",
                      "resize-behavior" : "resizeText",
                      "text" : "MENÚ LATERAL CON VARIAS OPCIONES",
                      "vertical-alignment" : "center",
                      "font" : {
                        "color-blue" : 1.0,
                        "color-green" : 1.0,
                        "color-red" : 1.0,
                        "size" : 96.0,
                        "tracking" : 0.0,
                        "name" : "Montserrat",
                        "weight" : "Regular"
                      },
                      "textAttributes" : {
                        "type" : "textAttributeList",
                        "keyframes" : [
                          {
                            "endTime" : 0,
                            "time" : 0,
                            "value" : [{"name":"fontName","rangeEnd":33,"rangeStart":0,"value":"Montserrat","valueType":"string"},{"name":"strikethrough","rangeEnd":33,"rangeStart":0,"value":0,"valueType":"int"},{"name":"fgColor","rangeEnd":33,"rangeStart":0,"value":"(0,0,0,255)","valueType":"color"},{"name":"fontSize","rangeEnd":33,"rangeStart":0,"value":96,"valueType":"double"},{"name":"kerning","rangeEnd":33,"rangeStart":0,"value":0,"valueType":"double"},{"name":"fontItalic","rangeEnd":33,"rangeStart":0,"value":2,"valueType":"int"},{"name":"fontWeight","rangeEnd":33,"rangeStart":0,"value":400,"valueType":"int"},{"name":"underline","rangeEnd":33,"rangeStart":0,"value":0,"valueType":"int"}],
                            "duration" : 0
                          }
                        ]
                      }
                    },
                    "attributes" : {
                      "autoRotateText" : true
                    },
                    "parameters" : {
                      "translation0" : -600.979591836818,
                      "translation1" : 0.438775510410395
                    },
                    "effects" : [

                    ],
                    "start" : 6022,
                    "duration" : 803,
                    "mediaStart" : -476,
                    "mediaDuration" : 803,
                    "scalar" : 1,
                    "metadata" : {
                      "clipSpeedAttribute" : false,
                      "default-HAlign" : "center",
                      "default-LineSpace" : 0.0,
                      "default-VAlign" : "center",
                      "default-text-attributes" : "[{\"name\":\"fontSize\",\"rangeEnd\":24,\"rangeStart\":0,\"value\":96,\"valueType\":\"double\"},{\"name\":\"fontWeight\",\"rangeEnd\":24,\"rangeStart\":0,\"value\":400,\"valueType\":\"int\"},{\"name\":\"fgColor\",\"rangeEnd\":24,\"rangeStart\":0,\"value\":\"(0,0,0,255)\",\"valueType\":\"color\"},{\"name\":\"kerning\",\"rangeEnd\":24,\"rangeStart\":0,\"value\":0,\"valueType\":\"double\"},{\"name\":\"fontItalic\",\"rangeEnd\":24,\"rangeStart\":0,\"value\":2,\"valueType\":\"int\"},{\"name\":\"fontName\",\"rangeEnd\":24,\"rangeStart\":0,\"value\":\"Montserrat\",\"valueType\":\"string\"},{\"name\":\"underline\",\"rangeEnd\":24,\"rangeStart\":0,\"value\":0,\"valueType\":\"int\"},{\"name\":\"strikethrough\",\"rangeEnd\":24,\"rangeStart\":0,\"value\":0,\"valueType\":\"int\"}]",
                      "default-translation0" : 0.0,
                      "default-translation1" : 0.0
                    },
                    "animationTracks" : {

                    }
                  },
                  {
                    "id" : 63,
                    "_type" : "Callout",
                    "def" : {
                      "kind" : "remix",
                      "shape" : "text",
                      "style" : "basic",
                      "height" : 356.122448979446,
                      "line-spacing" : 0.0,
                      "width" : 595.918367346841,
                      "word-wrap" : 1.0,
                      "horizontal-alignment" : "center",
                      "resize-behavior" : "resizeText",
                      "text" : "VISUALIZACIÓN DE EVENTOS Y RUTAS",
                      "vertical-alignment" : "center",
                      "font" : {
                        "color-blue" : 1.0,
                        "color-green" : 1.0,
                        "color-red" : 1.0,
                        "size" : 96.0,
                        "tracking" : 0.0,
                        "name" : "Montserrat",
                        "weight" : "Regular"
                      },
                      "textAttributes" : {
                        "type" : "textAttributeList",
                        "keyframes" : [
                          {
                            "endTime" : 0,
                            "time" : 0,
                            "value" : [{"name":"fontName","rangeEnd":33,"rangeStart":0,"value":"Montserrat","valueType":"string"},{"name":"kerning","rangeEnd":33,"rangeStart":0,"value":0,"valueType":"double"},{"name":"fontItalic","rangeEnd":33,"rangeStart":0,"value":2,"valueType":"int"},{"name":"underline","rangeEnd":33,"rangeStart":0,"value":0,"valueType":"int"},{"name":"fgColor","rangeEnd":33,"rangeStart":0,"value":"(0,0,0,255)","valueType":"color"},{"name":"fontSize","rangeEnd":33,"rangeStart":0,"value":96,"valueType":"double"},{"name":"fontWeight","rangeEnd":33,"rangeStart":0,"value":400,"valueType":"int"},{"name":"strikethrough","rangeEnd":33,"rangeStart":0,"value":0,"valueType":"int"}],
                            "duration" : 0
                          }
                        ]
                      }
                    },
                    "attributes" : {
                      "autoRotateText" : true
                    },
                    "parameters" : {
                      "translation0" : -600.979591836818,
                      "translation1" : 0.438775510410395
                    },
                    "effects" : [

                    ],
                    "start" : 6875,
                    "duration" : 1588,
                    "mediaStart" : -476,
                    "mediaDuration" : 1588,
                    "scalar" : 1,
                    "metadata" : {
                      "clipSpeedAttribute" : false,
                      "default-HAlign" : "center",
                      "default-LineSpace" : 0.0,
                      "default-VAlign" : "center",
                      "default-text-attributes" : "[{\"name\":\"fontSize\",\"rangeEnd\":24,\"rangeStart\":0,\"value\":96,\"valueType\":\"double\"},{\"name\":\"fontWeight\",\"rangeEnd\":24,\"rangeStart\":0,\"value\":400,\"valueType\":\"int\"},{\"name\":\"fgColor\",\"rangeEnd\":24,\"rangeStart\":0,\"value\":\"(0,0,0,255)\",\"valueType\":\"color\"},{\"name\":\"kerning\",\"rangeEnd\":24,\"rangeStart\":0,\"value\":0,\"valueType\":\"double\"},{\"name\":\"fontItalic\",\"rangeEnd\":24,\"rangeStart\":0,\"value\":2,\"valueType\":\"int\"},{\"name\":\"fontName\",\"rangeEnd\":24,\"rangeStart\":0,\"value\":\"Montserrat\",\"valueType\":\"string\"},{\"name\":\"underline\",\"rangeEnd\":24,\"rangeStart\":0,\"value\":0,\"valueType\":\"int\"},{\"name\":\"strikethrough\",\"rangeEnd\":24,\"rangeStart\":0,\"value\":0,\"valueType\":\"int\"}]",
                      "default-translation0" : 0.0,
                      "default-translation1" : 0.0
                    },
                    "animationTracks" : {

                    }
                  },
                  {
                    "id" : 64,
                    "_type" : "Callout",
                    "def" : {
                      "kind" : "remix",
                      "shape" : "text",
                      "style" : "basic",
                      "height" : 356.122448979446,
                      "line-spacing" : 0.0,
                      "width" : 595.918367346841,
                      "word-wrap" : 1.0,
                      "horizontal-alignment" : "center",
                      "resize-behavior" : "resizeText",
                      "text" : "COMPRAVENTA DE COCHES",
                      "vertical-alignment" : "center",
                      "font" : {
                        "color-blue" : 1.0,
                        "color-green" : 1.0,
                        "color-red" : 1.0,
                        "size" : 96.0,
                        "tracking" : 0.0,
                        "name" : "Montserrat",
                        "weight" : "Regular"
                      },
                      "textAttributes" : {
                        "type" : "textAttributeList",
                        "keyframes" : [
                          {
                            "endTime" : 0,
                            "time" : 0,
                            "value" : [{"name":"fgColor","rangeEnd":21,"rangeStart":0,"value":"(0,0,0,255)","valueType":"color"},{"name":"fontName","rangeEnd":21,"rangeStart":0,"value":"Montserrat","valueType":"string"},{"name":"fontWeight","rangeEnd":21,"rangeStart":0,"value":400,"valueType":"int"},{"name":"underline","rangeEnd":21,"rangeStart":0,"value":0,"valueType":"int"},{"name":"fontItalic","rangeEnd":21,"rangeStart":0,"value":2,"valueType":"int"},{"name":"strikethrough","rangeEnd":21,"rangeStart":0,"value":0,"valueType":"int"},{"name":"fontSize","rangeEnd":21,"rangeStart":0,"value":96,"valueType":"double"},{"name":"kerning","rangeEnd":21,"rangeStart":0,"value":0,"valueType":"double"}],
                            "duration" : 0
                          }
                        ]
                      }
                    },
                    "attributes" : {
                      "autoRotateText" : true
                    },
                    "parameters" : {
                      "translation0" : -600.979591836818,
                      "translation1" : 0.438775510410395
                    },
                    "effects" : [

                    ],
                    "start" : 8499,
                    "duration" : 1259,
                    "mediaStart" : -476,
                    "mediaDuration" : 1259,
                    "scalar" : 1,
                    "metadata" : {
                      "clipSpeedAttribute" : false,
                      "default-HAlign" : "center",
                      "default-LineSpace" : 0.0,
                      "default-VAlign" : "center",
                      "default-text-attributes" : "[{\"name\":\"fontSize\",\"rangeEnd\":24,\"rangeStart\":0,\"value\":96,\"valueType\":\"double\"},{\"name\":\"fontWeight\",\"rangeEnd\":24,\"rangeStart\":0,\"value\":400,\"valueType\":\"int\"},{\"name\":\"fgColor\",\"rangeEnd\":24,\"rangeStart\":0,\"value\":\"(0,0,0,255)\",\"valueType\":\"color\"},{\"name\":\"kerning\",\"rangeEnd\":24,\"rangeStart\":0,\"value\":0,\"valueType\":\"double\"},{\"name\":\"fontItalic\",\"rangeEnd\":24,\"rangeStart\":0,\"value\":2,\"valueType\":\"int\"},{\"name\":\"fontName\",\"rangeEnd\":24,\"rangeStart\":0,\"value\":\"Montserrat\",\"valueType\":\"string\"},{\"name\":\"underline\",\"rangeEnd\":24,\"rangeStart\":0,\"value\":0,\"valueType\":\"int\"},{\"name\":\"strikethrough\",\"rangeEnd\":24,\"rangeStart\":0,\"value\":0,\"valueType\":\"int\"}]",
                      "default-translation0" : 0.0,
                      "default-translation1" : 0.0
                    },
                    "animationTracks" : {

                    }
                  },
                  {
                    "id" : 65,
                    "_type" : "Callout",
                    "def" : {
                      "kind" : "remix",
                      "shape" : "text",
                      "style" : "basic",
                      "height" : 356.122448979446,
                      "line-spacing" : 0.0,
                      "width" : 595.918367346841,
                      "word-wrap" : 1.0,
                      "horizontal-alignment" : "center",
                      "resize-behavior" : "resizeText",
                      "text" : "CAMBIO DE COLOR EN EL MENÚ DE AJUSTES",
                      "vertical-alignment" : "center",
                      "font" : {
                        "color-blue" : 1.0,
                        "color-green" : 1.0,
                        "color-red" : 1.0,
                        "size" : 96.0,
                        "tracking" : 0.0,
                        "name" : "Montserrat",
                        "weight" : "Regular"
                      },
                      "textAttributes" : {
                        "type" : "textAttributeList",
                        "keyframes" : [
                          {
                            "endTime" : 0,
                            "time" : 0,
                            "value" : [{"name":"fontSize","rangeEnd":38,"rangeStart":0,"value":96,"valueType":"double"},{"name":"fgColor","rangeEnd":38,"rangeStart":0,"value":"(0,0,0,255)","valueType":"color"},{"name":"kerning","rangeEnd":38,"rangeStart":0,"value":0,"valueType":"double"},{"name":"fontWeight","rangeEnd":38,"rangeStart":0,"value":400,"valueType":"int"},{"name":"fontName","rangeEnd":38,"rangeStart":0,"value":"Montserrat","valueType":"string"},{"name":"fontItalic","rangeEnd":38,"rangeStart":0,"value":2,"valueType":"int"},{"name":"underline","rangeEnd":38,"rangeStart":0,"value":0,"valueType":"int"},{"name":"strikethrough","rangeEnd":38,"rangeStart":0,"value":0,"valueType":"int"}],
                            "duration" : 0
                          }
                        ]
                      }
                    },
                    "attributes" : {
                      "autoRotateText" : true
                    },
                    "parameters" : {
                      "translation0" : -600.979591836818,
                      "translation1" : 0.438775510410395
                    },
                    "effects" : [

                    ],
                    "start" : 9796,
                    "duration" : 813,
                    "mediaStart" : -476,
                    "mediaDuration" : 813,
                    "scalar" : 1,
                    "metadata" : {
                      "clipSpeedAttribute" : false,
                      "default-HAlign" : "center",
                      "default-LineSpace" : 0.0,
                      "default-VAlign" : "center",
                      "default-text-attributes" : "[{\"name\":\"fontSize\",\"rangeEnd\":24,\"rangeStart\":0,\"value\":96,\"valueType\":\"double\"},{\"name\":\"fontWeight\",\"rangeEnd\":24,\"rangeStart\":0,\"value\":400,\"valueType\":\"int\"},{\"name\":\"fgColor\",\"rangeEnd\":24,\"rangeStart\":0,\"value\":\"(0,0,0,255)\",\"valueType\":\"color\"},{\"name\":\"kerning\",\"rangeEnd\":24,\"rangeStart\":0,\"value\":0,\"valueType\":\"double\"},{\"name\":\"fontItalic\",\"rangeEnd\":24,\"rangeStart\":0,\"value\":2,\"valueType\":\"int\"},{\"name\":\"fontName\",\"rangeEnd\":24,\"rangeStart\":0,\"value\":\"Montserrat\",\"valueType\":\"string\"},{\"name\":\"underline\",\"rangeEnd\":24,\"rangeStart\":0,\"value\":0,\"valueType\":\"int\"},{\"name\":\"strikethrough\",\"rangeEnd\":24,\"rangeStart\":0,\"value\":0,\"valueType\":\"int\"}]",
                      "default-translation0" : 0.0,
                      "default-translation1" : 0.0
                    },
                    "animationTracks" : {

                    }
                  },
                  {
                    "id" : 66,
                    "_type" : "Callout",
                    "def" : {
                      "kind" : "remix",
                      "shape" : "text",
                      "style" : "basic",
                      "height" : 356.122448979446,
                      "line-spacing" : 0.0,
                      "width" : 595.918367346841,
                      "word-wrap" : 1.0,
                      "horizontal-alignment" : "center",
                      "resize-behavior" : "resizeText",
                      "text" : "TÉRMINOS Y CONDICIONES DE LA APP",
                      "vertical-alignment" : "center",
                      "font" : {
                        "color-blue" : 1.0,
                        "color-green" : 1.0,
                        "color-red" : 1.0,
                        "size" : 96.0,
                        "tracking" : 0.0,
                        "name" : "Montserrat",
                        "weight" : "Regular"
                      },
                      "textAttributes" : {
                        "type" : "textAttributeList",
                        "keyframes" : [
                          {
                            "endTime" : 0,
                            "time" : 0,
                            "value" : [{"name":"underline","rangeEnd":33,"rangeStart":0,"value":0,"valueType":"int"},{"name":"fontName","rangeEnd":33,"rangeStart":0,"value":"Montserrat","valueType":"string"},{"name":"fontSize","rangeEnd":33,"rangeStart":0,"value":96,"valueType":"double"},{"name":"kerning","rangeEnd":33,"rangeStart":0,"value":0,"valueType":"double"},{"name":"fgColor","rangeEnd":33,"rangeStart":0,"value":"(0,0,0,255)","valueType":"color"},{"name":"fontWeight","rangeEnd":33,"rangeStart":0,"value":400,"valueType":"int"},{"name":"strikethrough","rangeEnd":33,"rangeStart":0,"value":0,"valueType":"int"},{"name":"fontItalic","rangeEnd":33,"rangeStart":0,"value":2,"valueType":"int"}],
                            "duration" : 0
                          }
                        ]
                      }
                    },
                    "attributes" : {
                      "autoRotateText" : true
                    },
                    "parameters" : {
                      "translation0" : -600.979591836818,
                      "translation1" : 0.438775510410395
                    },
                    "effects" : [

                    ],
                    "start" : 10652,
                    "duration" : 598,
                    "mediaStart" : -476,
                    "mediaDuration" : 598,
                    "scalar" : 1,
                    "metadata" : {
                      "clipSpeedAttribute" : false,
                      "default-HAlign" : "center",
                      "default-LineSpace" : 0.0,
                      "default-VAlign" : "center",
                      "default-text-attributes" : "[{\"name\":\"fontSize\",\"rangeEnd\":24,\"rangeStart\":0,\"value\":96,\"valueType\":\"double\"},{\"name\":\"fontWeight\",\"rangeEnd\":24,\"rangeStart\":0,\"value\":400,\"valueType\":\"int\"},{\"name\":\"fgColor\",\"rangeEnd\":24,\"rangeStart\":0,\"value\":\"(0,0,0,255)\",\"valueType\":\"color\"},{\"name\":\"kerning\",\"rangeEnd\":24,\"rangeStart\":0,\"value\":0,\"valueType\":\"double\"},{\"name\":\"fontItalic\",\"rangeEnd\":24,\"rangeStart\":0,\"value\":2,\"valueType\":\"int\"},{\"name\":\"fontName\",\"rangeEnd\":24,\"rangeStart\":0,\"value\":\"Montserrat\",\"valueType\":\"string\"},{\"name\":\"underline\",\"rangeEnd\":24,\"rangeStart\":0,\"value\":0,\"valueType\":\"int\"},{\"name\":\"strikethrough\",\"rangeEnd\":24,\"rangeStart\":0,\"value\":0,\"valueType\":\"int\"}]",
                      "default-translation0" : 0.0,
                      "default-translation1" : 0.0
                    },
                    "animationTracks" : {

                    }
                  },
                  {
                    "id" : 67,
                    "_type" : "Callout",
                    "def" : {
                      "kind" : "remix",
                      "shape" : "text",
                      "style" : "basic",
                      "height" : 356.122448979446,
                      "line-spacing" : 0.0,
                      "width" : 595.918367346841,
                      "word-wrap" : 1.0,
                      "horizontal-alignment" : "center",
                      "resize-behavior" : "resizeText",
                      "text" : "CONTACTO Y AYUDA",
                      "vertical-alignment" : "center",
                      "font" : {
                        "color-blue" : 1.0,
                        "color-green" : 1.0,
                        "color-red" : 1.0,
                        "size" : 96.0,
                        "tracking" : 0.0,
                        "name" : "Montserrat",
                        "weight" : "Regular"
                      },
                      "textAttributes" : {
                        "type" : "textAttributeList",
                        "keyframes" : [
                          {
                            "endTime" : 0,
                            "time" : 0,
                            "value" : [{"name":"kerning","rangeEnd":16,"rangeStart":0,"value":0,"valueType":"double"},{"name":"fgColor","rangeEnd":16,"rangeStart":0,"value":"(0,0,0,255)","valueType":"color"},{"name":"fontSize","rangeEnd":16,"rangeStart":0,"value":96,"valueType":"double"},{"name":"strikethrough","rangeEnd":16,"rangeStart":0,"value":0,"valueType":"int"},{"name":"fontWeight","rangeEnd":16,"rangeStart":0,"value":400,"valueType":"int"},{"name":"fontItalic","rangeEnd":16,"rangeStart":0,"value":2,"valueType":"int"},{"name":"fontName","rangeEnd":16,"rangeStart":0,"value":"Montserrat","valueType":"string"},{"name":"underline","rangeEnd":16,"rangeStart":0,"value":0,"valueType":"int"}],
                            "duration" : 0
                          }
                        ]
                      }
                    },
                    "attributes" : {
                      "autoRotateText" : true
                    },
                    "parameters" : {
                      "translation0" : -600.979591836818,
                      "translation1" : 0.438775510410395
                    },
                    "effects" : [

                    ],
                    "start" : 11290,
                    "duration" : 319,
                    "mediaStart" : -476,
                    "mediaDuration" : 319,
                    "scalar" : 1,
                    "metadata" : {
                      "clipSpeedAttribute" : false,
                      "default-HAlign" : "center",
                      "default-LineSpace" : 0.0,
                      "default-VAlign" : "center",
                      "default-text-attributes" : "[{\"name\":\"fontSize\",\"rangeEnd\":24,\"rangeStart\":0,\"value\":96,\"valueType\":\"double\"},{\"name\":\"fontWeight\",\"rangeEnd\":24,\"rangeStart\":0,\"value\":400,\"valueType\":\"int\"},{\"name\":\"fgColor\",\"rangeEnd\":24,\"rangeStart\":0,\"value\":\"(0,0,0,255)\",\"valueType\":\"color\"},{\"name\":\"kerning\",\"rangeEnd\":24,\"rangeStart\":0,\"value\":0,\"valueType\":\"double\"},{\"name\":\"fontItalic\",\"rangeEnd\":24,\"rangeStart\":0,\"value\":2,\"valueType\":\"int\"},{\"name\":\"fontName\",\"rangeEnd\":24,\"rangeStart\":0,\"value\":\"Montserrat\",\"valueType\":\"string\"},{\"name\":\"underline\",\"rangeEnd\":24,\"rangeStart\":0,\"value\":0,\"valueType\":\"int\"},{\"name\":\"strikethrough\",\"rangeEnd\":24,\"rangeStart\":0,\"value\":0,\"valueType\":\"int\"}]",
                      "default-translation0" : 0.0,
                      "default-translation1" : 0.0
                    },
                    "animationTracks" : {

                    }
                  },
                  {
                    "id" : 68,
                    "_type" : "IMFile",
                    "src" : 3,
                    "trackNumber" : 0,
                    "trimStartSum" : -725,
                    "attributes" : {
                      "ident" : "stucom"
                    },
                    "parameters" : {
                      "translation0" : 704.0816326531,
                      "translation1" : -453.061224489821,
                      "scale0" : 0.26262475793272,
                      "scale1" : 0.26262475793272
                    },
                    "effects" : [

                    ],
                    "start" : 11645,
                    "duration" : 348,
                    "mediaStart" : 0,
                    "mediaDuration" : 1,
                    "scalar" : 1,
                    "metadata" : {
                      "clipSpeedAttribute" : false,
                      "default-scale0" : 1.0,
                      "default-scale1" : 1.0,
                      "default-translation0" : 0.0,
                      "default-translation1" : 0.0
                    },
                    "animationTracks" : {

                    }
                  }
                ],
                "transitions" : [
                  {
                    "name" : "Fade",
                    "duration" : 60,
                    "trivial" : false,
                    "reverse" : false,
                    "useAudioPreRoll" : true,
                    "useVisualPreRoll" : true,
                    "rightMedia" : 53
                  },
                  {
                    "name" : "Fade",
                    "duration" : 60,
                    "trivial" : false,
                    "reverse" : false,
                    "useAudioPreRoll" : true,
                    "useVisualPreRoll" : true,
                    "leftMedia" : 53
                  },
                  {
                    "name" : "Fade",
                    "duration" : 60,
                    "trivial" : false,
                    "reverse" : false,
                    "useAudioPreRoll" : true,
                    "useVisualPreRoll" : true,
                    "rightMedia" : 54
                  },
                  {
                    "name" : "Fade",
                    "duration" : 60,
                    "trivial" : false,
                    "reverse" : false,
                    "useAudioPreRoll" : true,
                    "useVisualPreRoll" : true,
                    "leftMedia" : 54
                  },
                  {
                    "name" : "Fade",
                    "duration" : 60,
                    "trivial" : false,
                    "reverse" : false,
                    "useAudioPreRoll" : true,
                    "useVisualPreRoll" : true,
                    "rightMedia" : 55
                  },
                  {
                    "name" : "Fade",
                    "duration" : 60,
                    "trivial" : false,
                    "reverse" : false,
                    "useAudioPreRoll" : true,
                    "useVisualPreRoll" : true,
                    "leftMedia" : 55
                  },
                  {
                    "name" : "Fade",
                    "duration" : 60,
                    "trivial" : false,
                    "reverse" : false,
                    "useAudioPreRoll" : true,
                    "useVisualPreRoll" : true,
                    "rightMedia" : 58
                  },
                  {
                    "name" : "Fade",
                    "duration" : 60,
                    "trivial" : false,
                    "reverse" : false,
                    "useAudioPreRoll" : true,
                    "useVisualPreRoll" : true,
                    "leftMedia" : 58
                  },
                  {
                    "name" : "Fade",
                    "duration" : 60,
                    "trivial" : false,
                    "reverse" : false,
                    "useAudioPreRoll" : true,
                    "useVisualPreRoll" : true,
                    "rightMedia" : 59
                  },
                  {
                    "name" : "Fade",
                    "duration" : 60,
                    "trivial" : false,
                    "reverse" : false,
                    "useAudioPreRoll" : true,
                    "useVisualPreRoll" : true,
                    "leftMedia" : 59
                  },
                  {
                    "name" : "Fade",
                    "duration" : 60,
                    "trivial" : false,
                    "reverse" : false,
                    "useAudioPreRoll" : true,
                    "useVisualPreRoll" : true,
                    "rightMedia" : 60
                  },
                  {
                    "name" : "Fade",
                    "duration" : 60,
                    "trivial" : false,
                    "reverse" : false,
                    "useAudioPreRoll" : true,
                    "useVisualPreRoll" : true,
                    "leftMedia" : 60
                  },
                  {
                    "name" : "Fade",
                    "duration" : 60,
                    "trivial" : false,
                    "reverse" : false,
                    "useAudioPreRoll" : true,
                    "useVisualPreRoll" : true,
                    "rightMedia" : 61
                  },
                  {
                    "name" : "Fade",
                    "duration" : 60,
                    "trivial" : false,
                    "reverse" : false,
                    "useAudioPreRoll" : true,
                    "useVisualPreRoll" : true,
                    "leftMedia" : 61
                  },
                  {
                    "name" : "Fade",
                    "duration" : 60,
                    "trivial" : false,
                    "reverse" : false,
                    "useAudioPreRoll" : true,
                    "useVisualPreRoll" : true,
                    "rightMedia" : 62
                  },
                  {
                    "name" : "Fade",
                    "duration" : 60,
                    "trivial" : false,
                    "reverse" : false,
                    "useAudioPreRoll" : true,
                    "useVisualPreRoll" : true,
                    "leftMedia" : 62
                  },
                  {
                    "name" : "Fade",
                    "duration" : 60,
                    "trivial" : false,
                    "reverse" : false,
                    "useAudioPreRoll" : true,
                    "useVisualPreRoll" : true,
                    "rightMedia" : 63
                  },
                  {
                    "name" : "Fade",
                    "duration" : 60,
                    "trivial" : false,
                    "reverse" : false,
                    "useAudioPreRoll" : true,
                    "useVisualPreRoll" : true,
                    "leftMedia" : 63
                  },
                  {
                    "name" : "Fade",
                    "duration" : 60,
                    "trivial" : false,
                    "reverse" : false,
                    "useAudioPreRoll" : true,
                    "useVisualPreRoll" : true,
                    "rightMedia" : 64
                  },
                  {
                    "name" : "Fade",
                    "duration" : 60,
                    "trivial" : false,
                    "reverse" : false,
                    "useAudioPreRoll" : true,
                    "useVisualPreRoll" : true,
                    "leftMedia" : 64
                  },
                  {
                    "name" : "Fade",
                    "duration" : 60,
                    "trivial" : false,
                    "reverse" : false,
                    "useAudioPreRoll" : true,
                    "useVisualPreRoll" : true,
                    "rightMedia" : 65
                  },
                  {
                    "name" : "Fade",
                    "duration" : 60,
                    "trivial" : false,
                    "reverse" : false,
                    "useAudioPreRoll" : true,
                    "useVisualPreRoll" : true,
                    "leftMedia" : 65
                  },
                  {
                    "name" : "Fade",
                    "duration" : 60,
                    "trivial" : false,
                    "reverse" : false,
                    "useAudioPreRoll" : true,
                    "useVisualPreRoll" : true,
                    "rightMedia" : 66
                  },
                  {
                    "name" : "Fade",
                    "duration" : 60,
                    "trivial" : false,
                    "reverse" : false,
                    "useAudioPreRoll" : true,
                    "useVisualPreRoll" : true,
                    "leftMedia" : 66
                  },
                  {
                    "name" : "Fade",
                    "duration" : 60,
                    "trivial" : false,
                    "reverse" : false,
                    "useAudioPreRoll" : true,
                    "useVisualPreRoll" : true,
                    "rightMedia" : 67
                  },
                  {
                    "name" : "Fade",
                    "duration" : 60,
                    "trivial" : false,
                    "reverse" : false,
                    "useAudioPreRoll" : true,
                    "useVisualPreRoll" : true,
                    "leftMedia" : 67
                  },
                  {
                    "name" : "Fade",
                    "duration" : 60,
                    "trivial" : false,
                    "reverse" : false,
                    "useAudioPreRoll" : true,
                    "useVisualPreRoll" : true,
                    "rightMedia" : 68
                  },
                  {
                    "name" : "Fade",
                    "duration" : 60,
                    "trivial" : false,
                    "reverse" : false,
                    "useAudioPreRoll" : true,
                    "useVisualPreRoll" : true,
                    "leftMedia" : 68
                  }
                ]
              },
              {
                "trackIndex" : 3,
                "medias" : [
                  {
                    "id" : 69,
                    "_type" : "IMFile",
                    "src" : 3,
                    "trackNumber" : 0,
                    "trimStartSum" : 0,
                    "attributes" : {
                      "ident" : "stucom"
                    },
                    "parameters" : {
                      "translation0" : 696.122448978936,
                      "translation1" : 408.589616765922,
                      "scale0" : 0.287402555291546,
                      "scale1" : 0.287402555291546
                    },
                    "effects" : [

                    ],
                    "start" : 0,
                    "duration" : 300,
                    "mediaStart" : 0,
                    "mediaDuration" : 1,
                    "scalar" : 1,
                    "metadata" : {
                      "clipSpeedAttribute" : false,
                      "default-scale0" : 1.0,
                      "default-scale1" : 1.0,
                      "default-translation0" : 0.0,
                      "default-translation1" : 0.0
                    },
                    "animationTracks" : {

                    }
                  },
                  {
                    "id" : 70,
                    "_type" : "IMFile",
                    "src" : 3,
                    "trackNumber" : 0,
                    "trimStartSum" : -725,
                    "attributes" : {
                      "ident" : "stucom"
                    },
                    "parameters" : {
                      "translation0" : 704.0816326531,
                      "translation1" : -453.061224489821,
                      "scale0" : 0.26262475793272,
                      "scale1" : 0.26262475793272
                    },
                    "effects" : [

                    ],
                    "start" : 358,
                    "duration" : 1044,
                    "mediaStart" : 0,
                    "mediaDuration" : 1,
                    "scalar" : 1,
                    "metadata" : {
                      "clipSpeedAttribute" : false,
                      "default-scale0" : 1.0,
                      "default-scale1" : 1.0,
                      "default-translation0" : 0.0,
                      "default-translation1" : 0.0
                    },
                    "animationTracks" : {

                    }
                  },
                  {
                    "id" : 71,
                    "_type" : "IMFile",
                    "src" : 3,
                    "trackNumber" : 0,
                    "trimStartSum" : -725,
                    "attributes" : {
                      "ident" : "stucom"
                    },
                    "parameters" : {
                      "translation0" : 704.0816326531,
                      "translation1" : -453.061224489821,
                      "scale0" : 0.26262475793272,
                      "scale1" : 0.26262475793272
                    },
                    "effects" : [

                    ],
                    "start" : 2191,
                    "duration" : 683,
                    "mediaStart" : 0,
                    "mediaDuration" : 1,
                    "scalar" : 1,
                    "metadata" : {
                      "clipSpeedAttribute" : false,
                      "default-scale0" : 1.0,
                      "default-scale1" : 1.0,
                      "default-translation0" : 0.0,
                      "default-translation1" : 0.0
                    },
                    "animationTracks" : {

                    }
                  },
                  {
                    "id" : 72,
                    "_type" : "IMFile",
                    "src" : 3,
                    "trackNumber" : 0,
                    "trimStartSum" : -725,
                    "attributes" : {
                      "ident" : "stucom"
                    },
                    "parameters" : {
                      "translation0" : 704.0816326531,
                      "translation1" : -453.061224489821,
                      "scale0" : 0.26262475793272,
                      "scale1" : 0.26262475793272
                    },
                    "effects" : [

                    ],
                    "start" : 2894,
                    "duration" : 824,
                    "mediaStart" : 0,
                    "mediaDuration" : 1,
                    "scalar" : 1,
                    "metadata" : {
                      "clipSpeedAttribute" : false,
                      "default-scale0" : 1.0,
                      "default-scale1" : 1.0,
                      "default-translation0" : 0.0,
                      "default-translation1" : 0.0
                    },
                    "animationTracks" : {

                    }
                  },
                  {
                    "id" : 73,
                    "_type" : "IMFile",
                    "src" : 3,
                    "trackNumber" : 0,
                    "trimStartSum" : -725,
                    "attributes" : {
                      "ident" : "stucom"
                    },
                    "parameters" : {
                      "translation0" : 704.0816326531,
                      "translation1" : -453.061224489821,
                      "scale0" : 0.26262475793272,
                      "scale1" : 0.26262475793272
                    },
                    "effects" : [

                    ],
                    "start" : 3750,
                    "duration" : 1010,
                    "mediaStart" : 0,
                    "mediaDuration" : 1,
                    "scalar" : 1,
                    "metadata" : {
                      "clipSpeedAttribute" : false,
                      "default-scale0" : 1.0,
                      "default-scale1" : 1.0,
                      "default-translation0" : 0.0,
                      "default-translation1" : 0.0
                    },
                    "animationTracks" : {

                    }
                  },
                  {
                    "id" : 74,
                    "_type" : "IMFile",
                    "src" : 9,
                    "trackNumber" : 0,
                    "trimStartSum" : 0,
                    "attributes" : {
                      "ident" : "pixabay"
                    },
                    "parameters" : {
                      "translation0" : -601.020408163387,
                      "translation1" : -443.593903619957,
                      "scale0" : 0.270089285714084,
                      "scale1" : 0.270089285714084
                    },
                    "effects" : [

                    ],
                    "start" : 4808,
                    "duration" : 1166,
                    "mediaStart" : 0,
                    "mediaDuration" : 1,
                    "scalar" : 1,
                    "metadata" : {
                      "clipSpeedAttribute" : false,
                      "default-scale0" : 0.75,
                      "default-scale1" : 0.75,
                      "default-translation0" : 0.0,
                      "default-translation1" : 0.0
                    },
                    "animationTracks" : {

                    }
                  },
                  {
                    "id" : 75,
                    "_type" : "IMFile",
                    "src" : 3,
                    "trackNumber" : 0,
                    "trimStartSum" : -725,
                    "attributes" : {
                      "ident" : "stucom"
                    },
                    "parameters" : {
                      "translation0" : 704.0816326531,
                      "translation1" : -453.061224489821,
                      "scale0" : 0.26262475793272,
                      "scale1" : 0.26262475793272
                    },
                    "effects" : [

                    ],
                    "start" : 6022,
                    "duration" : 803,
                    "mediaStart" : 0,
                    "mediaDuration" : 1,
                    "scalar" : 1,
                    "metadata" : {
                      "clipSpeedAttribute" : false,
                      "default-scale0" : 1.0,
                      "default-scale1" : 1.0,
                      "default-translation0" : 0.0,
                      "default-translation1" : 0.0
                    },
                    "animationTracks" : {

                    }
                  },
                  {
                    "id" : 76,
                    "_type" : "IMFile",
                    "src" : 3,
                    "trackNumber" : 0,
                    "trimStartSum" : -725,
                    "attributes" : {
                      "ident" : "stucom"
                    },
                    "parameters" : {
                      "translation0" : 704.0816326531,
                      "translation1" : -453.061224489821,
                      "scale0" : 0.26262475793272,
                      "scale1" : 0.26262475793272
                    },
                    "effects" : [

                    ],
                    "start" : 6875,
                    "duration" : 1588,
                    "mediaStart" : 0,
                    "mediaDuration" : 1,
                    "scalar" : 1,
                    "metadata" : {
                      "clipSpeedAttribute" : false,
                      "default-scale0" : 1.0,
                      "default-scale1" : 1.0,
                      "default-translation0" : 0.0,
                      "default-translation1" : 0.0
                    },
                    "animationTracks" : {

                    }
                  },
                  {
                    "id" : 77,
                    "_type" : "IMFile",
                    "src" : 3,
                    "trackNumber" : 0,
                    "trimStartSum" : -725,
                    "attributes" : {
                      "ident" : "stucom"
                    },
                    "parameters" : {
                      "translation0" : 704.0816326531,
                      "translation1" : -453.061224489821,
                      "scale0" : 0.26262475793272,
                      "scale1" : 0.26262475793272
                    },
                    "effects" : [

                    ],
                    "start" : 8499,
                    "duration" : 1259,
                    "mediaStart" : 0,
                    "mediaDuration" : 1,
                    "scalar" : 1,
                    "metadata" : {
                      "clipSpeedAttribute" : false,
                      "default-scale0" : 1.0,
                      "default-scale1" : 1.0,
                      "default-translation0" : 0.0,
                      "default-translation1" : 0.0
                    },
                    "animationTracks" : {

                    }
                  },
                  {
                    "id" : 78,
                    "_type" : "IMFile",
                    "src" : 3,
                    "trackNumber" : 0,
                    "trimStartSum" : -725,
                    "attributes" : {
                      "ident" : "stucom"
                    },
                    "parameters" : {
                      "translation0" : 704.0816326531,
                      "translation1" : -453.061224489821,
                      "scale0" : 0.26262475793272,
                      "scale1" : 0.26262475793272
                    },
                    "effects" : [

                    ],
                    "start" : 9796,
                    "duration" : 813,
                    "mediaStart" : 0,
                    "mediaDuration" : 1,
                    "scalar" : 1,
                    "metadata" : {
                      "clipSpeedAttribute" : false,
                      "default-scale0" : 1.0,
                      "default-scale1" : 1.0,
                      "default-translation0" : 0.0,
                      "default-translation1" : 0.0
                    },
                    "animationTracks" : {

                    }
                  },
                  {
                    "id" : 79,
                    "_type" : "IMFile",
                    "src" : 3,
                    "trackNumber" : 0,
                    "trimStartSum" : -725,
                    "attributes" : {
                      "ident" : "stucom"
                    },
                    "parameters" : {
                      "translation0" : 704.0816326531,
                      "translation1" : -453.061224489821,
                      "scale0" : 0.26262475793272,
                      "scale1" : 0.26262475793272
                    },
                    "effects" : [

                    ],
                    "start" : 10652,
                    "duration" : 598,
                    "mediaStart" : 0,
                    "mediaDuration" : 1,
                    "scalar" : 1,
                    "metadata" : {
                      "clipSpeedAttribute" : false,
                      "default-scale0" : 1.0,
                      "default-scale1" : 1.0,
                      "default-translation0" : 0.0,
                      "default-translation1" : 0.0
                    },
                    "animationTracks" : {

                    }
                  },
                  {
                    "id" : 80,
                    "_type" : "IMFile",
                    "src" : 3,
                    "trackNumber" : 0,
                    "trimStartSum" : -725,
                    "attributes" : {
                      "ident" : "stucom"
                    },
                    "parameters" : {
                      "translation0" : 704.0816326531,
                      "translation1" : -453.061224489821,
                      "scale0" : 0.26262475793272,
                      "scale1" : 0.26262475793272
                    },
                    "effects" : [

                    ],
                    "start" : 11290,
                    "duration" : 319,
                    "mediaStart" : 0,
                    "mediaDuration" : 1,
                    "scalar" : 1,
                    "metadata" : {
                      "clipSpeedAttribute" : false,
                      "default-scale0" : 1.0,
                      "default-scale1" : 1.0,
                      "default-translation0" : 0.0,
                      "default-translation1" : 0.0
                    },
                    "animationTracks" : {

                    }
                  },
                  {
                    "id" : 81,
                    "_type" : "IMFile",
                    "src" : 1,
                    "trackNumber" : 0,
                    "trimStartSum" : -316,
                    "attributes" : {
                      "ident" : "logo_Alex"
                    },
                    "parameters" : {
                      "translation0" : 775.877551021381,
                      "translation1" : 443.983099490024,
                      "scale0" : 0.225127551019879,
                      "scale1" : 0.225127551019879
                    },
                    "effects" : [

                    ],
                    "start" : 11645,
                    "duration" : 348,
                    "mediaStart" : 0,
                    "mediaDuration" : 1,
                    "scalar" : 1,
                    "metadata" : {
                      "clipSpeedAttribute" : false,
                      "default-scale0" : 1.0,
                      "default-scale1" : 1.0,
                      "default-translation0" : 0.0,
                      "default-translation1" : -0.5
                    },
                    "animationTracks" : {

                    }
                  }
                ],
                "transitions" : [
                  {
                    "name" : "Fade",
                    "duration" : 60,
                    "trivial" : false,
                    "reverse" : false,
                    "useAudioPreRoll" : true,
                    "useVisualPreRoll" : true,
                    "rightMedia" : 69
                  },
                  {
                    "name" : "Fade",
                    "duration" : 60,
                    "trivial" : false,
                    "reverse" : false,
                    "useAudioPreRoll" : true,
                    "useVisualPreRoll" : true,
                    "leftMedia" : 69
                  },
                  {
                    "name" : "Fade",
                    "duration" : 60,
                    "trivial" : false,
                    "reverse" : false,
                    "useAudioPreRoll" : true,
                    "useVisualPreRoll" : true,
                    "rightMedia" : 70
                  },
                  {
                    "name" : "Fade",
                    "duration" : 60,
                    "trivial" : false,
                    "reverse" : false,
                    "useAudioPreRoll" : true,
                    "useVisualPreRoll" : true,
                    "leftMedia" : 70
                  },
                  {
                    "name" : "Fade",
                    "duration" : 60,
                    "trivial" : false,
                    "reverse" : false,
                    "useAudioPreRoll" : true,
                    "useVisualPreRoll" : true,
                    "rightMedia" : 71
                  },
                  {
                    "name" : "Fade",
                    "duration" : 60,
                    "trivial" : false,
                    "reverse" : false,
                    "useAudioPreRoll" : true,
                    "useVisualPreRoll" : true,
                    "leftMedia" : 71
                  },
                  {
                    "name" : "Fade",
                    "duration" : 60,
                    "trivial" : false,
                    "reverse" : false,
                    "useAudioPreRoll" : true,
                    "useVisualPreRoll" : true,
                    "rightMedia" : 72
                  },
                  {
                    "name" : "Fade",
                    "duration" : 60,
                    "trivial" : false,
                    "reverse" : false,
                    "useAudioPreRoll" : true,
                    "useVisualPreRoll" : true,
                    "leftMedia" : 72
                  },
                  {
                    "name" : "Fade",
                    "duration" : 60,
                    "trivial" : false,
                    "reverse" : false,
                    "useAudioPreRoll" : true,
                    "useVisualPreRoll" : true,
                    "rightMedia" : 73
                  },
                  {
                    "name" : "Fade",
                    "duration" : 60,
                    "trivial" : false,
                    "reverse" : false,
                    "useAudioPreRoll" : true,
                    "useVisualPreRoll" : true,
                    "leftMedia" : 73
                  },
                  {
                    "name" : "Fade",
                    "duration" : 60,
                    "trivial" : false,
                    "reverse" : false,
                    "useAudioPreRoll" : true,
                    "useVisualPreRoll" : true,
                    "rightMedia" : 74
                  },
                  {
                    "name" : "Fade",
                    "duration" : 60,
                    "trivial" : false,
                    "reverse" : false,
                    "useAudioPreRoll" : true,
                    "useVisualPreRoll" : true,
                    "leftMedia" : 74
                  },
                  {
                    "name" : "Fade",
                    "duration" : 60,
                    "trivial" : false,
                    "reverse" : false,
                    "useAudioPreRoll" : true,
                    "useVisualPreRoll" : true,
                    "rightMedia" : 75
                  },
                  {
                    "name" : "Fade",
                    "duration" : 60,
                    "trivial" : false,
                    "reverse" : false,
                    "useAudioPreRoll" : true,
                    "useVisualPreRoll" : true,
                    "leftMedia" : 75
                  },
                  {
                    "name" : "Fade",
                    "duration" : 60,
                    "trivial" : false,
                    "reverse" : false,
                    "useAudioPreRoll" : true,
                    "useVisualPreRoll" : true,
                    "rightMedia" : 76
                  },
                  {
                    "name" : "Fade",
                    "duration" : 60,
                    "trivial" : false,
                    "reverse" : false,
                    "useAudioPreRoll" : true,
                    "useVisualPreRoll" : true,
                    "leftMedia" : 76
                  },
                  {
                    "name" : "Fade",
                    "duration" : 60,
                    "trivial" : false,
                    "reverse" : false,
                    "useAudioPreRoll" : true,
                    "useVisualPreRoll" : true,
                    "rightMedia" : 77
                  },
                  {
                    "name" : "Fade",
                    "duration" : 60,
                    "trivial" : false,
                    "reverse" : false,
                    "useAudioPreRoll" : true,
                    "useVisualPreRoll" : true,
                    "leftMedia" : 77
                  },
                  {
                    "name" : "Fade",
                    "duration" : 60,
                    "trivial" : false,
                    "reverse" : false,
                    "useAudioPreRoll" : true,
                    "useVisualPreRoll" : true,
                    "rightMedia" : 78
                  },
                  {
                    "name" : "Fade",
                    "duration" : 60,
                    "trivial" : false,
                    "reverse" : false,
                    "useAudioPreRoll" : true,
                    "useVisualPreRoll" : true,
                    "leftMedia" : 78
                  },
                  {
                    "name" : "Fade",
                    "duration" : 60,
                    "trivial" : false,
                    "reverse" : false,
                    "useAudioPreRoll" : true,
                    "useVisualPreRoll" : true,
                    "rightMedia" : 79
                  },
                  {
                    "name" : "Fade",
                    "duration" : 60,
                    "trivial" : false,
                    "reverse" : false,
                    "useAudioPreRoll" : true,
                    "useVisualPreRoll" : true,
                    "leftMedia" : 79
                  },
                  {
                    "name" : "Fade",
                    "duration" : 60,
                    "trivial" : false,
                    "reverse" : false,
                    "useAudioPreRoll" : true,
                    "useVisualPreRoll" : true,
                    "rightMedia" : 80
                  },
                  {
                    "name" : "Fade",
                    "duration" : 60,
                    "trivial" : false,
                    "reverse" : false,
                    "useAudioPreRoll" : true,
                    "useVisualPreRoll" : true,
                    "leftMedia" : 80
                  },
                  {
                    "name" : "Fade",
                    "duration" : 60,
                    "trivial" : false,
                    "reverse" : false,
                    "useAudioPreRoll" : true,
                    "useVisualPreRoll" : true,
                    "rightMedia" : 81
                  },
                  {
                    "name" : "Fade",
                    "duration" : 60,
                    "trivial" : false,
                    "reverse" : false,
                    "useAudioPreRoll" : true,
                    "useVisualPreRoll" : true,
                    "leftMedia" : 81
                  }
                ]
              },
              {
                "trackIndex" : 4,
                "medias" : [
                  {
                    "id" : 82,
                    "_type" : "IMFile",
                    "src" : 1,
                    "trackNumber" : 0,
                    "trimStartSum" : -335,
                    "attributes" : {
                      "ident" : "logo_Alex"
                    },
                    "parameters" : {
                      "translation0" : 775.877551021381,
                      "translation1" : 443.983099490024,
                      "scale0" : 0.225127551019879,
                      "scale1" : 0.225127551019879
                    },
                    "effects" : [

                    ],
                    "start" : 358,
                    "duration" : 1044,
                    "mediaStart" : 0,
                    "mediaDuration" : 1,
                    "scalar" : 1,
                    "metadata" : {
                      "clipSpeedAttribute" : false,
                      "default-scale0" : 1.0,
                      "default-scale1" : 1.0,
                      "default-translation0" : 0.0,
                      "default-translation1" : -0.5
                    },
                    "animationTracks" : {

                    }
                  },
                  {
                    "id" : 83,
                    "_type" : "IMFile",
                    "src" : 1,
                    "trackNumber" : 0,
                    "trimStartSum" : -316,
                    "attributes" : {
                      "ident" : "logo_Alex"
                    },
                    "parameters" : {
                      "translation0" : 775.877551021381,
                      "translation1" : 443.983099490024,
                      "scale0" : 0.225127551019879,
                      "scale1" : 0.225127551019879
                    },
                    "effects" : [

                    ],
                    "start" : 2191,
                    "duration" : 683,
                    "mediaStart" : 0,
                    "mediaDuration" : 1,
                    "scalar" : 1,
                    "metadata" : {
                      "clipSpeedAttribute" : false,
                      "default-scale0" : 1.0,
                      "default-scale1" : 1.0,
                      "default-translation0" : 0.0,
                      "default-translation1" : -0.5
                    },
                    "animationTracks" : {

                    }
                  },
                  {
                    "id" : 84,
                    "_type" : "IMFile",
                    "src" : 1,
                    "trackNumber" : 0,
                    "trimStartSum" : -316,
                    "attributes" : {
                      "ident" : "logo_Alex"
                    },
                    "parameters" : {
                      "translation0" : 775.877551021381,
                      "translation1" : 443.983099490024,
                      "scale0" : 0.225127551019879,
                      "scale1" : 0.225127551019879
                    },
                    "effects" : [

                    ],
                    "start" : 2894,
                    "duration" : 824,
                    "mediaStart" : 0,
                    "mediaDuration" : 1,
                    "scalar" : 1,
                    "metadata" : {
                      "clipSpeedAttribute" : false,
                      "default-scale0" : 1.0,
                      "default-scale1" : 1.0,
                      "default-translation0" : 0.0,
                      "default-translation1" : -0.5
                    },
                    "animationTracks" : {

                    }
                  },
                  {
                    "id" : 85,
                    "_type" : "IMFile",
                    "src" : 1,
                    "trackNumber" : 0,
                    "trimStartSum" : -316,
                    "attributes" : {
                      "ident" : "logo_Alex"
                    },
                    "parameters" : {
                      "translation0" : 775.877551021381,
                      "translation1" : 443.983099490024,
                      "scale0" : 0.225127551019879,
                      "scale1" : 0.225127551019879
                    },
                    "effects" : [

                    ],
                    "start" : 3750,
                    "duration" : 1010,
                    "mediaStart" : 0,
                    "mediaDuration" : 1,
                    "scalar" : 1,
                    "metadata" : {
                      "clipSpeedAttribute" : false,
                      "default-scale0" : 1.0,
                      "default-scale1" : 1.0,
                      "default-translation0" : 0.0,
                      "default-translation1" : -0.5
                    },
                    "animationTracks" : {

                    }
                  },
                  {
                    "id" : 86,
                    "_type" : "IMFile",
                    "src" : 3,
                    "trackNumber" : 0,
                    "trimStartSum" : -725,
                    "attributes" : {
                      "ident" : "stucom"
                    },
                    "parameters" : {
                      "translation0" : 704.0816326531,
                      "translation1" : -453.061224489821,
                      "scale0" : 0.26262475793272,
                      "scale1" : 0.26262475793272
                    },
                    "effects" : [

                    ],
                    "start" : 4808,
                    "duration" : 1166,
                    "mediaStart" : 0,
                    "mediaDuration" : 1,
                    "scalar" : 1,
                    "metadata" : {
                      "clipSpeedAttribute" : false,
                      "default-scale0" : 1.0,
                      "default-scale1" : 1.0,
                      "default-translation0" : 0.0,
                      "default-translation1" : 0.0
                    },
                    "animationTracks" : {

                    }
                  },
                  {
                    "id" : 87,
                    "_type" : "IMFile",
                    "src" : 1,
                    "trackNumber" : 0,
                    "trimStartSum" : -316,
                    "attributes" : {
                      "ident" : "logo_Alex"
                    },
                    "parameters" : {
                      "translation0" : 775.877551021381,
                      "translation1" : 443.983099490024,
                      "scale0" : 0.225127551019879,
                      "scale1" : 0.225127551019879
                    },
                    "effects" : [

                    ],
                    "start" : 6022,
                    "duration" : 803,
                    "mediaStart" : 0,
                    "mediaDuration" : 1,
                    "scalar" : 1,
                    "metadata" : {
                      "clipSpeedAttribute" : false,
                      "default-scale0" : 1.0,
                      "default-scale1" : 1.0,
                      "default-translation0" : 0.0,
                      "default-translation1" : -0.5
                    },
                    "animationTracks" : {

                    }
                  },
                  {
                    "id" : 88,
                    "_type" : "IMFile",
                    "src" : 1,
                    "trackNumber" : 0,
                    "trimStartSum" : -316,
                    "attributes" : {
                      "ident" : "logo_Alex"
                    },
                    "parameters" : {
                      "translation0" : 775.877551021381,
                      "translation1" : 443.983099490024,
                      "scale0" : 0.225127551019879,
                      "scale1" : 0.225127551019879
                    },
                    "effects" : [

                    ],
                    "start" : 6875,
                    "duration" : 1588,
                    "mediaStart" : 0,
                    "mediaDuration" : 1,
                    "scalar" : 1,
                    "metadata" : {
                      "clipSpeedAttribute" : false,
                      "default-scale0" : 1.0,
                      "default-scale1" : 1.0,
                      "default-translation0" : 0.0,
                      "default-translation1" : -0.5
                    },
                    "animationTracks" : {

                    }
                  },
                  {
                    "id" : 89,
                    "_type" : "IMFile",
                    "src" : 1,
                    "trackNumber" : 0,
                    "trimStartSum" : -316,
                    "attributes" : {
                      "ident" : "logo_Alex"
                    },
                    "parameters" : {
                      "translation0" : 775.877551021381,
                      "translation1" : 443.983099490024,
                      "scale0" : 0.225127551019879,
                      "scale1" : 0.225127551019879
                    },
                    "effects" : [

                    ],
                    "start" : 8499,
                    "duration" : 1259,
                    "mediaStart" : 0,
                    "mediaDuration" : 1,
                    "scalar" : 1,
                    "metadata" : {
                      "clipSpeedAttribute" : false,
                      "default-scale0" : 1.0,
                      "default-scale1" : 1.0,
                      "default-translation0" : 0.0,
                      "default-translation1" : -0.5
                    },
                    "animationTracks" : {

                    }
                  },
                  {
                    "id" : 90,
                    "_type" : "IMFile",
                    "src" : 1,
                    "trackNumber" : 0,
                    "trimStartSum" : -316,
                    "attributes" : {
                      "ident" : "logo_Alex"
                    },
                    "parameters" : {
                      "translation0" : 775.877551021381,
                      "translation1" : 443.983099490024,
                      "scale0" : 0.225127551019879,
                      "scale1" : 0.225127551019879
                    },
                    "effects" : [

                    ],
                    "start" : 9796,
                    "duration" : 813,
                    "mediaStart" : 0,
                    "mediaDuration" : 1,
                    "scalar" : 1,
                    "metadata" : {
                      "clipSpeedAttribute" : false,
                      "default-scale0" : 1.0,
                      "default-scale1" : 1.0,
                      "default-translation0" : 0.0,
                      "default-translation1" : -0.5
                    },
                    "animationTracks" : {

                    }
                  },
                  {
                    "id" : 91,
                    "_type" : "IMFile",
                    "src" : 1,
                    "trackNumber" : 0,
                    "trimStartSum" : -316,
                    "attributes" : {
                      "ident" : "logo_Alex"
                    },
                    "parameters" : {
                      "translation0" : 775.877551021381,
                      "translation1" : 443.983099490024,
                      "scale0" : 0.225127551019879,
                      "scale1" : 0.225127551019879
                    },
                    "effects" : [

                    ],
                    "start" : 10652,
                    "duration" : 598,
                    "mediaStart" : 0,
                    "mediaDuration" : 1,
                    "scalar" : 1,
                    "metadata" : {
                      "clipSpeedAttribute" : false,
                      "default-scale0" : 1.0,
                      "default-scale1" : 1.0,
                      "default-translation0" : 0.0,
                      "default-translation1" : -0.5
                    },
                    "animationTracks" : {

                    }
                  },
                  {
                    "id" : 92,
                    "_type" : "IMFile",
                    "src" : 1,
                    "trackNumber" : 0,
                    "trimStartSum" : -316,
                    "attributes" : {
                      "ident" : "logo_Alex"
                    },
                    "parameters" : {
                      "translation0" : 775.877551021381,
                      "translation1" : 443.983099490024,
                      "scale0" : 0.225127551019879,
                      "scale1" : 0.225127551019879
                    },
                    "effects" : [

                    ],
                    "start" : 11290,
                    "duration" : 319,
                    "mediaStart" : 0,
                    "mediaDuration" : 1,
                    "scalar" : 1,
                    "metadata" : {
                      "clipSpeedAttribute" : false,
                      "default-scale0" : 1.0,
                      "default-scale1" : 1.0,
                      "default-translation0" : 0.0,
                      "default-translation1" : -0.5
                    },
                    "animationTracks" : {

                    }
                  }
                ],
                "transitions" : [
                  {
                    "name" : "Fade",
                    "duration" : 60,
                    "trivial" : false,
                    "reverse" : false,
                    "useAudioPreRoll" : true,
                    "useVisualPreRoll" : true,
                    "rightMedia" : 82
                  },
                  {
                    "name" : "Fade",
                    "duration" : 60,
                    "trivial" : false,
                    "reverse" : false,
                    "useAudioPreRoll" : true,
                    "useVisualPreRoll" : true,
                    "leftMedia" : 82
                  },
                  {
                    "name" : "Fade",
                    "duration" : 60,
                    "trivial" : false,
                    "reverse" : false,
                    "useAudioPreRoll" : true,
                    "useVisualPreRoll" : true,
                    "rightMedia" : 83
                  },
                  {
                    "name" : "Fade",
                    "duration" : 60,
                    "trivial" : false,
                    "reverse" : false,
                    "useAudioPreRoll" : true,
                    "useVisualPreRoll" : true,
                    "leftMedia" : 83
                  },
                  {
                    "name" : "Fade",
                    "duration" : 60,
                    "trivial" : false,
                    "reverse" : false,
                    "useAudioPreRoll" : true,
                    "useVisualPreRoll" : true,
                    "rightMedia" : 84
                  },
                  {
                    "name" : "Fade",
                    "duration" : 60,
                    "trivial" : false,
                    "reverse" : false,
                    "useAudioPreRoll" : true,
                    "useVisualPreRoll" : true,
                    "leftMedia" : 84
                  },
                  {
                    "name" : "Fade",
                    "duration" : 60,
                    "trivial" : false,
                    "reverse" : false,
                    "useAudioPreRoll" : true,
                    "useVisualPreRoll" : true,
                    "rightMedia" : 85
                  },
                  {
                    "name" : "Fade",
                    "duration" : 60,
                    "trivial" : false,
                    "reverse" : false,
                    "useAudioPreRoll" : true,
                    "useVisualPreRoll" : true,
                    "leftMedia" : 85
                  },
                  {
                    "name" : "Fade",
                    "duration" : 60,
                    "trivial" : false,
                    "reverse" : false,
                    "useAudioPreRoll" : true,
                    "useVisualPreRoll" : true,
                    "rightMedia" : 86
                  },
                  {
                    "name" : "Fade",
                    "duration" : 60,
                    "trivial" : false,
                    "reverse" : false,
                    "useAudioPreRoll" : true,
                    "useVisualPreRoll" : true,
                    "leftMedia" : 86
                  },
                  {
                    "name" : "Fade",
                    "duration" : 60,
                    "trivial" : false,
                    "reverse" : false,
                    "useAudioPreRoll" : true,
                    "useVisualPreRoll" : true,
                    "rightMedia" : 87
                  },
                  {
                    "name" : "Fade",
                    "duration" : 60,
                    "trivial" : false,
                    "reverse" : false,
                    "useAudioPreRoll" : true,
                    "useVisualPreRoll" : true,
                    "leftMedia" : 87
                  },
                  {
                    "name" : "Fade",
                    "duration" : 60,
                    "trivial" : false,
                    "reverse" : false,
                    "useAudioPreRoll" : true,
                    "useVisualPreRoll" : true,
                    "rightMedia" : 88
                  },
                  {
                    "name" : "Fade",
                    "duration" : 60,
                    "trivial" : false,
                    "reverse" : false,
                    "useAudioPreRoll" : true,
                    "useVisualPreRoll" : true,
                    "leftMedia" : 88
                  },
                  {
                    "name" : "Fade",
                    "duration" : 60,
                    "trivial" : false,
                    "reverse" : false,
                    "useAudioPreRoll" : true,
                    "useVisualPreRoll" : true,
                    "rightMedia" : 89
                  },
                  {
                    "name" : "Fade",
                    "duration" : 60,
                    "trivial" : false,
                    "reverse" : false,
                    "useAudioPreRoll" : true,
                    "useVisualPreRoll" : true,
                    "leftMedia" : 89
                  },
                  {
                    "name" : "Fade",
                    "duration" : 60,
                    "trivial" : false,
                    "reverse" : false,
                    "useAudioPreRoll" : true,
                    "useVisualPreRoll" : true,
                    "rightMedia" : 90
                  },
                  {
                    "name" : "Fade",
                    "duration" : 60,
                    "trivial" : false,
                    "reverse" : false,
                    "useAudioPreRoll" : true,
                    "useVisualPreRoll" : true,
                    "leftMedia" : 90
                  },
                  {
                    "name" : "Fade",
                    "duration" : 60,
                    "trivial" : false,
                    "reverse" : false,
                    "useAudioPreRoll" : true,
                    "useVisualPreRoll" : true,
                    "rightMedia" : 91
                  },
                  {
                    "name" : "Fade",
                    "duration" : 60,
                    "trivial" : false,
                    "reverse" : false,
                    "useAudioPreRoll" : true,
                    "useVisualPreRoll" : true,
                    "leftMedia" : 91
                  },
                  {
                    "name" : "Fade",
                    "duration" : 60,
                    "trivial" : false,
                    "reverse" : false,
                    "useAudioPreRoll" : true,
                    "useVisualPreRoll" : true,
                    "rightMedia" : 92
                  },
                  {
                    "name" : "Fade",
                    "duration" : 60,
                    "trivial" : false,
                    "reverse" : false,
                    "useAudioPreRoll" : true,
                    "useVisualPreRoll" : true,
                    "leftMedia" : 92
                  }
                ]
              },
              {
                "trackIndex" : 5,
                "medias" : [
                  {
                    "id" : 93,
                    "_type" : "IMFile",
                    "src" : 1,
                    "trackNumber" : 0,
                    "trimStartSum" : -316,
                    "attributes" : {
                      "ident" : "logo_Alex"
                    },
                    "parameters" : {
                      "translation0" : 775.877551021381,
                      "translation1" : 443.983099490024,
                      "scale0" : 0.225127551019879,
                      "scale1" : 0.225127551019879
                    },
                    "effects" : [

                    ],
                    "start" : 4808,
                    "duration" : 1166,
                    "mediaStart" : 0,
                    "mediaDuration" : 1,
                    "scalar" : 1,
                    "metadata" : {
                      "clipSpeedAttribute" : false,
                      "default-scale0" : 1.0,
                      "default-scale1" : 1.0,
                      "default-translation0" : 0.0,
                      "default-translation1" : -0.5
                    },
                    "animationTracks" : {

                    }
                  }
                ],
                "transitions" : [
                  {
                    "name" : "Fade",
                    "duration" : 60,
                    "trivial" : false,
                    "reverse" : false,
                    "useAudioPreRoll" : true,
                    "useVisualPreRoll" : true,
                    "rightMedia" : 93
                  },
                  {
                    "name" : "Fade",
                    "duration" : 60,
                    "trivial" : false,
                    "reverse" : false,
                    "useAudioPreRoll" : true,
                    "useVisualPreRoll" : true,
                    "leftMedia" : 93
                  }
                ]
              },
              {
                "trackIndex" : 6,
                "medias" : [
                ]
              }
            ]
          }
        }
      ]
    },
    "trackAttributes" : [
      {
        "ident" : "",
        "audioMuted" : false,
        "videoHidden" : false,
        "magnetic" : false,
        "metadata" : {
          "IsLocked" : "False",
          "WinTrackHeight" : "56"
        }
      },
      {
        "ident" : "",
        "audioMuted" : false,
        "videoHidden" : false,
        "magnetic" : false,
        "metadata" : {
          "IsLocked" : "False",
          "WinTrackHeight" : "56"
        }
      },
      {
        "ident" : "",
        "audioMuted" : false,
        "videoHidden" : false,
        "magnetic" : false,
        "metadata" : {
          "IsLocked" : "False",
          "WinTrackHeight" : "56"
        }
      },
      {
        "ident" : "",
        "audioMuted" : false,
        "videoHidden" : false,
        "magnetic" : false,
        "metadata" : {
          "IsLocked" : "False",
          "WinTrackHeight" : "56"
        }
      },
      {
        "ident" : "",
        "audioMuted" : false,
        "videoHidden" : false,
        "magnetic" : false,
        "metadata" : {
          "IsLocked" : "False",
          "WinTrackHeight" : "56"
        }
      },
      {
        "ident" : "",
        "audioMuted" : false,
        "videoHidden" : false,
        "magnetic" : false,
        "metadata" : {
          "IsLocked" : "False",
          "WinTrackHeight" : "56"
        }
      },
      {
        "ident" : "",
        "audioMuted" : false,
        "videoHidden" : false,
        "magnetic" : false,
        "metadata" : {
          "IsLocked" : "False",
          "WinTrackHeight" : "56"
        }
      }
    ],
    "captionAttributes" : {
      "enabled" : true,
      "fontName" : "Arial",
      "fontSize" : 64,
      "backgroundColor" : [ 0, 0, 0, 191],
      "foregroundColor" : [ 255, 255, 255, 255],
      "lang" : "en",
      "alignment" : 0,
      "defaultFontSize" : true,
      "opacity" : 0.5,
      "backgroundEnabled" : true,
      "backgroundOnlyAroundText" : true
    },
    "backgroundColor" : [ 216, 222, 227, 255]
  },
  "metadata" : {
    "AutoSaveFile" : "",
    "CanvasZoom" : 49,
    "Date" : "2021-05-30 11:37:47 ",
    "IsAutoSave" : "0",
    "Language" : "ENU",
    "ProfileName" : "",
    "ProjectDimensionsChanged" : "1",
    "Title" : "Video_final_sintesis",
    "audioNarrationNotes" : "",
    "calloutStyle" : "Basic",
    "canvasDetached" : "False",
    "canvasPositionHeight" : "0",
    "canvasPositionLeft" : "0",
    "canvasPositionTop" : "0",
    "canvasPositionWidth" : "0"
  }
}
